<svg width="61" height="49" viewBox="0 0 61 49" fill="none" xmlns="http://www.w3.org/2000/svg">
<g clip-path="url(#clip0_930_5002)">
<path d="M60.1564 43.0677L0 48.3405V0.00182513L60.1509 0L60.1545 43.0677H60.1564ZM18.6492 12.8617C17.9319 11.2665 18.1747 9.74256 19.2004 8.48139C18.2933 8.07986 17.3844 7.89187 16.4189 7.91012C13.1045 7.76046 10.6442 10.0656 9.32095 12.8708L18.6492 12.8617ZM25.3365 11.0694C25.3365 9.31913 23.9184 7.901 22.1681 7.901C20.4178 7.901 18.9996 9.31913 18.9996 11.0694C18.9996 12.8197 20.4178 14.2379 22.1681 14.2379C23.9184 14.2379 25.3365 12.8197 25.3365 11.0694ZM37.1615 21.688L37.1561 11.8615C37.1561 10.7829 36.5501 9.9415 35.8931 9.17677C35.236 8.41204 34.3672 7.89005 33.2922 7.89917L29.1674 7.93385C28.9868 7.93385 28.7057 8.06526 28.6309 8.19302C28.5652 8.30435 28.4976 8.58907 28.4976 8.77706V25.2471C28.4976 25.6504 28.7422 25.9698 29.1109 25.9716L33.2776 25.9844C35.6065 25.9917 37.1615 23.6829 37.1615 21.6899V21.688ZM46.2598 25.9881L48.4171 25.9753C48.5558 25.9753 48.8296 25.8274 48.8716 25.7106C48.9081 25.6103 48.9336 25.373 48.9026 25.2452L47.3275 19.1201C46.9333 17.587 48.4007 17.7257 48.3824 15.4169L48.3496 11.1151C48.3386 9.69875 47.2052 8.61098 45.8857 8.26603C45.0826 8.05614 44.3343 7.97218 43.5148 7.97583L40.5015 7.98678C40.3154 7.98678 39.9996 8.07804 39.9175 8.20397C39.8445 8.31348 39.7587 8.59272 39.7587 8.77889V25.3401C39.7569 25.6942 40.0215 25.9808 40.33 25.9808H42.1916C42.5165 25.9808 42.772 25.6924 42.7738 25.3547L42.7994 20.1659C42.8012 19.737 43.1443 19.4249 43.4856 19.3756C43.8579 19.3227 44.2211 19.5326 44.3233 19.9597L45.6429 25.4569C45.6977 25.6851 46.0225 25.9899 46.2635 25.9881H46.2598ZM23.9987 36.5209C22.2538 36.4132 20.7463 36.0847 19.3391 35.2835C17.7531 34.3818 16.9245 32.7118 17.3023 30.9305C21.1095 30.4651 24.517 28.4994 25.3456 24.528C25.603 23.2686 25.592 22.0458 25.4423 20.7518C25.185 18.6164 24.7981 16.554 24.0516 14.5262C22.3561 15.4023 20.4378 15.0409 19.1967 13.6374H8.93585C8.03971 15.7509 7.57248 17.9027 7.27133 20.1385C7.08882 21.4709 6.99938 22.7411 7.20745 24.0625C7.86815 28.3352 11.3304 30.4195 15.311 30.9323C15.687 32.7776 14.8055 34.4494 13.1702 35.3437C11.7484 36.123 10.2207 36.4205 8.56352 36.5319L8.59272 37.2656H24.0406C24.0735 36.9717 24.0698 36.7144 23.9968 36.5191L23.9987 36.5209ZM52.9672 25.5446C53.0165 24.8565 53.0146 24.2432 52.8832 23.5643C52.0856 23.3453 51.3392 23.3489 50.5288 23.5479C50.4248 24.0151 50.1765 25.9406 50.8975 25.9698C51.5691 25.9972 52.9215 26.1943 52.9672 25.5446ZM50.2258 37.1542C50.7223 37.2035 51.3519 37.2309 51.7735 37.063C52.6587 36.7107 53.0676 35.7306 53.0475 34.829C53.0274 33.9274 52.6788 33.1627 52.0491 32.564L50.7058 31.2882C50.2587 30.8648 50.0269 30.2443 50.151 29.6493C50.2076 29.381 50.4576 29.1401 50.6894 29.1236C50.9358 29.1072 51.1895 29.3116 51.3045 29.5434L51.5928 30.1311C52.0619 30.1384 52.4981 30.0618 52.9471 29.892C53.0201 29.2003 52.6916 28.5871 52.2645 28.1618C51.7808 27.6818 51.1402 27.565 50.4686 27.6325C49.556 27.7256 48.8022 28.2786 48.5558 29.1893C48.2857 30.1913 48.5358 31.312 49.2804 32.0639L51.049 33.8489C51.4322 34.2358 51.5892 34.8108 51.3173 35.3236C51.2114 35.5226 50.8938 35.6996 50.6912 35.6941C50.5087 35.6905 50.1729 35.4678 50.1054 35.2871L49.7604 34.3599C49.3005 34.3453 48.8059 34.3891 48.3824 34.5279C48.2675 35.5901 48.93 37.0228 50.2258 37.1542ZM44.9074 32.2775C45.8127 31.1422 45.8163 29.6091 44.9494 28.5232C44.4566 27.9063 43.7065 27.826 42.9764 27.8278L41.29 27.8314C41.0637 27.8314 40.8976 28.0121 40.8976 28.2585V36.7892C40.8976 36.9735 41.0874 37.1907 41.2498 37.1907L43.3305 37.209C44.077 37.2145 44.6975 36.9808 45.1337 36.4826C45.9568 35.5445 45.9769 33.2685 44.9092 32.2775H44.9074ZM30.9433 33.2448C31.0692 33.3178 31.4653 33.4182 31.5018 33.5405C31.6296 33.9748 31.6533 34.6757 31.5237 35.0973C31.3941 35.5189 30.9615 35.654 30.6367 35.5682C30.4067 35.508 30.0891 35.1448 30.0891 34.8126L30.0855 30.2351C30.0855 29.7916 30.4542 29.4284 30.8137 29.4175C31.1477 29.4084 31.5328 29.6821 31.5638 30.0764L31.6496 31.1331C32.199 31.1824 32.6717 31.1842 33.2393 31.1039C33.274 30.5783 33.3287 30.0672 33.2576 29.6128C33.0714 28.4337 32.0311 27.8552 30.9615 27.815C29.5525 27.7639 28.4629 28.702 28.4775 30.1512L28.4958 32.0493L27.7493 32.5093C27.9446 32.7703 28.1454 32.8834 28.4775 33.0258C28.5067 33.8179 28.4611 34.6611 28.5359 35.4915C28.6108 36.322 29.4449 36.9133 30.038 37.1195C30.9469 37.4371 31.7847 37.2473 32.4837 36.7363C33.044 36.3274 33.3342 35.7233 33.3233 35.0115L33.274 31.8595C32.4399 31.7263 31.7153 31.7372 30.8995 31.8413C30.8119 32.3231 30.7498 32.8688 30.9451 33.2466L30.9433 33.2448ZM38.0558 37.1305C38.587 37.2126 39.0925 37.2053 39.5342 37.1305C39.609 36.9991 39.6565 36.718 39.6309 36.5629L38.2475 28.2987C38.2092 28.0742 38.012 27.8789 37.8241 27.8789H36.4625C36.2763 27.8789 36.05 28.0651 36.0135 28.2786L34.5297 37.0867C35.1156 37.2236 35.6065 37.2254 36.1559 37.1104L36.4278 35.6102C36.4935 35.2451 36.676 35.1064 37.0411 35.09C37.4754 35.0699 37.7547 35.2068 37.8259 35.6485L38.0595 37.1305H38.0558ZM47.4735 29.7424L47.6506 27.8953L46.3675 27.9118L46.5281 29.7424H47.4753H47.4735Z" fill="black"/>
<path d="M16.4101 23.2593L16.4083 23.9984L13.4717 23.9893L16.6419 15.8438L17.4468 15.8511L14.5759 23.2337L16.4101 23.2593Z" fill="black"/>
<path d="M14.7212 28.2676L14.7012 27.4828C16.101 27.9975 17.4662 27.8642 18.6562 27.021C19.6984 26.2818 20.381 25.0115 20.3171 23.6025L19.6728 22.9491L20.1583 22.4746L22.0857 24.3983L21.6075 24.8655L21.0472 24.3472C20.8573 25.8073 20.0379 27.0119 18.9683 27.7219C17.6469 28.5998 16.1704 28.7275 14.7231 28.2712L14.7212 28.2676Z" fill="black"/>
<path d="M13.6687 18.3153C13.6687 19.4998 12.7087 20.4617 11.5223 20.4617C10.336 20.4617 9.37598 19.5016 9.37598 18.3153C9.37598 17.129 10.336 16.1689 11.5223 16.1689C12.7087 16.1689 13.6687 17.129 13.6687 18.3153ZM12.9843 18.3171C12.9843 17.5104 12.3309 16.857 11.5242 16.857C10.7174 16.857 10.0641 17.5104 10.0641 18.3171C10.0641 19.1238 10.7174 19.7772 11.5242 19.7772C12.3309 19.7772 12.9843 19.1238 12.9843 18.3171Z" fill="black"/>
<path d="M19.436 17.9407L19.4355 18.7109L22.5127 18.7125L22.5131 17.9423L19.436 17.9407Z" fill="black"/>
<path d="M45.5264 14.8661C45.5264 15.3845 45.1833 15.8827 44.9004 16.1017C44.4295 16.4704 43.9221 16.5544 43.3728 16.3883C43.1099 16.308 42.8252 16.0087 42.8216 15.7093L42.7832 11.7835C42.7796 11.3582 43.0972 11.0096 43.5224 11.0388C44.3528 11.0954 45.5246 11.3235 45.5246 12.3985V14.8661H45.5264Z" fill="black"/>
<path d="M34.1121 21.661C34.1084 22.7305 32.6483 23.1959 31.8854 22.7597C31.6883 22.6466 31.5459 22.3399 31.5459 22.1282V11.7889C31.5441 11.5589 31.6646 11.2377 31.8106 11.1446C31.9876 11.0314 32.3088 10.9876 32.537 10.9767C33.4459 10.9365 34.1413 11.4859 34.1376 12.4349L34.1121 21.6628V21.661Z" fill="black"/>
<path d="M43.9 34.9767C43.7321 35.506 43.0403 35.8108 42.6206 35.4184C42.6315 34.765 42.3231 33.2319 42.971 33.0877C43.1225 33.0549 43.4437 33.1315 43.5842 33.252C44.0807 33.6736 44.1026 34.3379 43.9 34.9767Z" fill="black"/>
<path d="M43.5408 31.3544C43.455 31.4402 43.1411 31.5205 43.0225 31.5095C42.4384 31.4548 42.4548 30.1681 42.6939 29.5858C42.7578 29.4307 43.1484 29.3997 43.2962 29.4526C43.4824 29.5183 43.7379 29.7373 43.8 29.9436C43.9496 30.4382 43.9533 30.9419 43.5408 31.3544Z" fill="black"/>
<path d="M37.5012 33.4784C37.3315 33.6262 36.8752 33.6226 36.7803 33.4474C36.8077 32.9163 36.7857 32.3596 37.1435 31.9033C37.4099 32.3943 37.4866 32.9674 37.4994 33.4784H37.5012Z" fill="black"/>
<path d="M22.1701 11.8325C22.5915 11.8325 22.933 11.4909 22.933 11.0695C22.933 10.6482 22.5915 10.3066 22.1701 10.3066C21.7488 10.3066 21.4072 10.6482 21.4072 11.0695C21.4072 11.4909 21.7488 11.8325 22.1701 11.8325Z" fill="black"/>
<path d="M12.1866 18.315C12.1866 17.95 11.891 17.6543 11.5259 17.6543C11.1609 17.6543 10.8652 17.95 10.8652 18.315C10.8652 18.68 11.1609 18.9757 11.5259 18.9757C11.891 18.9757 12.1866 18.68 12.1866 18.315Z" fill="black"/>
<path d="M11.524 18.9757C11.8889 18.9757 12.1847 18.6799 12.1847 18.315C12.1847 17.9501 11.8889 17.6543 11.524 17.6543C11.1591 17.6543 10.8633 17.9501 10.8633 18.315C10.8633 18.6799 11.1591 18.9757 11.524 18.9757Z" fill="black"/>
</g>
<defs>
<clipPath id="clip0_930_5002">
<rect width="60.1564" height="48.3405" fill="white"/>
</clipPath>
</defs>
</svg>
