<svg width="139" height="43" viewBox="0 0 139 43" fill="none" xmlns="http://www.w3.org/2000/svg">
<path d="M130.281 41.9985H138.707V0H130.281V41.9985ZM84.0651 20.5181C84.1851 19.0772 84.6064 18.1786 85.5103 17.397C86.5341 16.557 87.9766 16.1369 89.7818 16.1369C93.2107 16.1369 95.0158 17.5167 95.0158 19.7976C95.0158 21.4778 94.3546 22.2567 92.1282 22.5571L90.7443 22.7379C84.1237 23.6976 74.9168 24.9577 74.9168 33.1166C74.9168 39.1167 80.0922 42.8359 86.7101 42.8359C92.1255 42.8359 94.5332 40.9165 95.9784 39.5368H96.0397L96.221 41.9959H103.863V41.8151C103.322 40.8554 103.14 39.776 103.14 37.7343V23.2749C103.14 20.3346 102.9 18.4764 102.418 16.9743C100.794 11.8754 95.3758 10.1341 90.0217 10.1341C82.4999 10.1341 76.8419 13.3136 76.4206 20.3931L84.0624 20.5128L84.0651 20.5181ZM88.4593 36.8384C85.2703 36.8384 83.2838 35.4587 83.2838 32.88C83.2838 31.9203 83.6438 31.0802 84.2464 30.4794C85.089 29.6393 86.7128 29.0996 89.0005 28.4988L90.867 28.0176C93.0321 27.478 94.5972 27.0579 95.3198 26.7575V30.5379C95.3198 32.0372 95.1998 32.5769 95.0185 33.1192C94.0559 35.8202 91.1683 36.8384 88.4593 36.8384ZM62.8835 21.4193C62.0409 14.6402 56.4442 10.1394 48.6825 10.1394C38.8729 10.1394 32.7963 16.9185 32.7963 26.4598C32.7963 36.001 38.4516 42.7801 48.6238 42.7801C56.6869 42.7801 61.9236 38.2208 63.1261 31.5002H54.9431C54.2205 33.9593 52.6553 36.3014 48.8051 36.3014C44.4109 36.3014 41.4646 33.3027 41.4646 26.5209C41.4646 19.7391 44.2936 16.5623 48.6265 16.5623C52.2367 16.5623 54.1032 18.9629 54.5831 21.422H62.8862L62.8835 21.4193ZM15.5849 16.2592C19.7977 16.2592 22.3841 19.1995 22.5041 23.1579H8.66301C9.02297 19.1995 11.5507 16.2592 15.5822 16.2592M22.0855 32.9996C21.1816 34.6797 19.3765 36.3599 16.0088 36.3599C12.1586 36.3599 8.96698 34.0789 8.54836 28.6796H30.9938V27.9006C30.9938 17.7612 25.9384 10.1421 15.5876 10.1421C6.07664 10.1394 0 17.1604 0 26.4598C0 35.7591 5.77801 42.7801 15.8862 42.7801C23.3493 42.7801 28.4634 38.8801 30.6285 32.9996H22.0828H22.0855ZM25.2131 0H14.9823L10.8894 7.73881H18.4112L25.2131 0Z" fill="black"/>
</svg>
