<svg width="81" height="42" viewBox="0 0 81 42" fill="none" xmlns="http://www.w3.org/2000/svg">
<g clip-path="url(#clip0_930_5056)">
<path d="M12.7678 41.5948V32.0272H6.66141V34.6218H9.67491V34.8651C9.67491 37.2976 8.80257 39.0813 6.74071 39.0813C4.91675 39.0813 3.64791 37.3787 3.64791 33.0002C3.64791 28.6219 4.75815 26.9191 6.82001 26.9191C8.32676 26.9191 9.11979 27.9732 9.2784 29.8381L12.6884 29.3516C12.5298 27.0002 11.023 24.0003 6.82001 24.0003C2.37907 23.9192 0 27.3245 0 32.9191C0 38.9192 2.77559 41.9191 6.50281 41.9191C8.16815 41.9191 9.67491 41.0273 10.23 39.4056H10.3093L10.7058 41.5137H12.7678V41.5948ZM23.7115 37.8651C23.3942 39.0813 22.6012 39.4867 21.6495 39.4867C20.2222 39.4867 19.2705 38.5949 19.2705 36.4867H26.7249C26.8043 36.0814 26.8043 35.6759 26.8043 35.1894C26.8043 31.6219 24.7423 29.2705 21.6495 29.2705C18.3189 29.2705 16.1777 31.7029 16.1777 35.5137C16.1777 39.3245 18.1603 41.838 21.7289 41.838C24.7423 41.838 26.1698 39.8922 26.5664 38.1083L23.7115 37.8651ZM19.3498 34.5407C19.3498 32.8381 20.2222 31.784 21.5703 31.784C23.077 31.784 23.7115 32.8381 23.7115 34.5407H19.3498ZM33.0691 31.2165C33.0691 30.7299 32.9898 30.1624 32.9898 29.6759H29.9763C30.0557 30.8921 30.1349 32.2704 30.1349 33.4056V41.5948H33.3071V34.9462C33.3071 32.6759 34.4173 31.9461 35.4483 31.9461C36.0826 31.9461 36.5585 32.2704 36.7964 32.5949C37.1136 33.0002 37.1929 33.5679 37.1929 34.4597V41.5137H40.365V33.8921C40.365 32.5949 40.0478 31.5408 39.4927 30.7299C38.8582 29.8381 37.9066 29.2705 36.2413 29.2705C35.0517 29.3516 33.6242 30.0813 33.0691 31.2165ZM51.1501 37.8651C50.8329 39.0813 50.0399 39.4867 49.0883 39.4867C47.6608 39.4867 46.7092 38.5949 46.7092 36.4867H54.1636C54.2429 36.0814 54.2429 35.6759 54.2429 35.1894C54.2429 31.6219 52.1811 29.2705 49.0883 29.2705C45.7575 29.2705 43.6163 31.7029 43.6163 35.5137C43.6163 39.3245 45.5989 41.838 49.1675 41.838C52.1811 41.838 53.6085 39.8922 54.005 38.1083L51.1501 37.8651ZM46.7092 34.5407C46.7092 32.8381 47.5816 31.784 48.9297 31.784C50.4364 31.784 51.0708 32.8381 51.0708 34.5407H46.7092ZM51.7052 28.3786L52.3397 27.0813L46.7885 23.4326L45.6782 25.9461L51.7052 28.3786ZM59.3976 29.6759H55.9876L60.27 41.5948H63.1248L67.4071 29.6759H64.1557L62.5697 34.9462C62.2524 36.0814 62.0146 36.8921 61.7767 37.9462H61.6973C61.4594 36.8921 61.3008 36.0814 60.9043 34.9462L59.3976 29.6759ZM76.9234 37.8651C76.6063 39.0813 75.8132 39.4867 74.8616 39.4867C73.4341 39.4867 72.4825 38.5949 72.4825 36.4867H79.9369C80.0162 36.0814 80.0162 35.6759 80.0162 35.1894C80.0162 31.6219 77.9544 29.2705 74.8616 29.2705C71.5308 29.2705 69.3897 31.7029 69.3897 35.5137C69.3897 39.3245 71.3723 41.838 74.9408 41.838C77.9544 41.838 79.3818 39.8922 79.7783 38.1083L76.9234 37.8651ZM72.4825 34.5407C72.4825 32.8381 73.3549 31.784 74.703 31.784C76.2097 31.784 76.8441 32.8381 76.8441 34.5407H72.4825Z" fill="black"/>
<path d="M16.7325 9.24325V7.86487H1.26855V9.24325H16.7325ZM34.0205 17.2703V0H30.4519V6.97298H25.6938V0H22.1251V17.2703H25.6938V9.89189H30.4519V17.2703H34.0205ZM49.3259 17.2703V14.2703H42.3473V9.72973H48.057V6.97298H42.3473V2.91892H49.3259V0H38.7786V17.2703H49.3259ZM65.5829 17.2703L60.2696 0H56.8596L51.5463 17.2703H55.115L55.9873 14.1081H60.9833L61.8556 17.2703H65.5829ZM60.2696 11.2703H56.7803L57.6526 7.78378C57.9699 6.72974 58.287 5.43243 58.525 4.13513C58.7629 5.43243 59.1594 6.64865 59.3973 7.7027L60.2696 11.2703ZM80.9676 8.35136C80.9676 4.94595 79.8574 1.70271 76.8439 0.486486C76.1301 0.162162 75.1785 0 74.0683 0H68.5171V17.2703H74.0683C75.1785 17.2703 76.0509 17.1081 76.8439 16.8649C79.9366 15.6487 80.9676 12.4865 80.9676 8.35136ZM77.399 8.5946C77.399 11.9189 76.5266 14.3514 74.0683 14.3514H72.0857V2.83784H73.7511C76.7645 2.83784 77.399 5.75676 77.399 8.5946Z" fill="black"/>
</g>
<defs>
<clipPath id="clip0_930_5056">
<rect width="81" height="42" fill="white"/>
</clipPath>
</defs>
</svg>
