<?xml version="1.0" encoding="utf-8"?>
<!-- Generator: Adobe Illustrator 26.0.2, SVG Export Plug-In . SVG Version: 6.00 Build 0)  -->
<svg version="1.1" xmlns="http://www.w3.org/2000/svg" xmlns:xlink="http://www.w3.org/1999/xlink" x="0px" y="0px"
	 viewBox="0 0 206.929138 76.535431" style="enable-background:new 0 0 206.929138 76.535431;" xml:space="preserve">
<style type="text/css">
	.st0{fill:#FFFFFF;}
	.st1{display:none;}
	.st2{display:inline;fill:none;stroke:#009FE3;stroke-width:0.25;stroke-miterlimit:10;}
	.st3{display:inline;opacity:0.4;fill:#009640;}
	.st4{display:inline;fill:none;stroke:#1D71B8;stroke-width:0.25;stroke-miterlimit:10;}
</style>
<g id="Layer_1">
	<g>
		<g>
			<g>
				<path d="M93.458717,31.182394c-0.076195,0.1045-0.256294,0.323299-0.389595,0.418001
					c-0.151901,0.114199-0.379898,0.180599-0.579605,0.180599h-1.139694c-0.199699,0-0.427704-0.066401-0.579605-0.180599
					c-0.133301-0.094702-0.3423-0.341801-0.4179-0.446301c-0.047394-0.0762-0.114288-0.1719-0.133293-0.218811l0.494095-0.170889
					c0.076202,0.1612,0.294403,0.3985,0.4468,0.4844c0.047302,0.028299,0.1045,0.038099,0.170898,0.038099h1.149399
					c0.066406,0,0.113808-0.0098,0.161606-0.038099c0.151901-0.085899,0.332497-0.2666,0.417999-0.4277
					c0.018997-0.038099,0.028297-0.0947,0.028297-0.1612v-0.341702c0-0.190498-0.161598-0.333099-0.360802-0.351599
					l-1.567398-0.114311c-0.465797-0.03809-0.826698-0.399389-0.826698-0.864189v-0.2852
					c0-0.190399,0.047401-0.3613,0.142601-0.503901c0.075699-0.1045,0.256302-0.3232,0.389206-0.417999
					c0.15229-0.114201,0.380295-0.180599,0.579491-0.180599h0.988304c0.199203,0,0.427299,0.066399,0.579597,0.180599
					c0.132797,0.094799,0.351097,0.351601,0.427299,0.4561c0.057098,0.076189,0.114197,0.1611,0.132797,0.209l-0.493698,0.1709
					c-0.076096-0.1612-0.304199-0.3985-0.456001-0.4844c-0.047394-0.028311-0.0952-0.038101-0.161697-0.038101h-1.006798
					c-0.066399,0-0.123505,0.00979-0.170906,0.038101c-0.152298,0.085899-0.323196,0.2568-0.408699,0.417999
					c-0.018997,0.038099-0.028297,0.09469-0.028297,0.1611v0.2852c0,0.19039,0.161102,0.333,0.360802,0.3515l1.567398,0.124001
					c0.465408,0.038099,0.826698,0.398499,0.826698,0.8643v0.341799C93.601318,30.868895,93.553917,31.039795,93.458717,31.182394z"
					/>
				<path d="M99.092026,31.733194h-0.712402l-1.006805-3.4863l-0.969299,3.4863h-0.712395l-1.1875-4.084999h0.5513
					l0.968697,3.534199h0.057198l0.931099-3.534199h0.731506l0.968697,3.534199h0.057198l0.931099-3.534199h0.541504
					L99.092026,31.733194z"/>
				<path d="M101.191124,26.593494v-0.607401h0.589394v0.607401H101.191124z M101.229218,31.733194v-4.084999h0.513206v4.084999
					H101.229218z"/>
				<path d="M106.15992,31.182394c-0.076202,0.1045-0.256401,0.323299-0.389702,0.418001
					c-0.151794,0.114199-0.379898,0.180599-0.579597,0.180599h-1.139595c-0.199707,0-0.427704-0.066401-0.579605-0.180599
					c-0.133301-0.094702-0.3423-0.341801-0.417999-0.446301c-0.047302-0.0762-0.114204-0.1719-0.133301-0.218811l0.494202-0.170889
					c0.076096,0.1612,0.294395,0.3985,0.4468,0.4844c0.047295,0.028299,0.104401,0.038099,0.170799,0.038099h1.149498
					c0.066399,0,0.113701-0.0098,0.161606-0.038099c0.151794-0.085899,0.332497-0.2666,0.417999-0.4277
					c0.019005-0.038099,0.028297-0.0947,0.028297-0.1612v-0.341702c0-0.190498-0.161598-0.333099-0.360901-0.351599
					l-1.567299-0.114311c-0.465904-0.03809-0.826698-0.399389-0.826698-0.864189v-0.2852
					c0-0.190399,0.047394-0.3613,0.142601-0.503901c0.075699-0.1045,0.256294-0.3232,0.389099-0.417999
					c0.152397-0.114201,0.380394-0.180599,0.579597-0.180599h0.988304c0.199196,0,0.427193,0.066399,0.579597,0.180599
					c0.132797,0.094799,0.351097,0.351601,0.4272,0.4561c0.057205,0.076189,0.114296,0.1611,0.132797,0.209l-0.493591,0.1709
					c-0.07621-0.1612-0.304207-0.3985-0.456108-0.4844c-0.047302-0.028311-0.0952-0.038101-0.161598-0.038101h-1.006805
					c-0.066399,0-0.123596,0.00979-0.170898,0.038101c-0.152397,0.085899-0.323296,0.2568-0.408699,0.417999
					c-0.018997,0.038099-0.028297,0.09469-0.028297,0.1611v0.2852c0,0.19039,0.161095,0.333,0.360794,0.3515l1.567406,0.124001
					c0.465294,0.038099,0.826698,0.398499,0.826698,0.8643v0.341799C106.302521,30.868895,106.255119,31.039795,106.15992,31.182394
					z"/>
				<path d="M110.59642,31.182394c-0.076202,0.1045-0.256302,0.323299-0.389603,0.418001
					c-0.151901,0.114199-0.379898,0.180599-0.579597,0.180599h-1.139702c-0.199699,0-0.427696-0.066401-0.579597-0.180599
					c-0.133301-0.094702-0.3423-0.341801-0.417892-0.446301c-0.047409-0.0762-0.114311-0.1719-0.133308-0.218811l0.494102-0.170889
					c0.076202,0.1612,0.294395,0.3985,0.4468,0.4844c0.047295,0.028299,0.1045,0.038099,0.170898,0.038099h1.149399
					c0.066399,0,0.1138-0.0098,0.161598-0.038099c0.151901-0.085899,0.332512-0.2666,0.417999-0.4277
					c0.019005-0.038099,0.028305-0.0947,0.028305-0.1612v-0.341702c0-0.190498-0.161606-0.333099-0.360794-0.351599
					l-1.567406-0.114311c-0.465805-0.03809-0.826706-0.399389-0.826706-0.864189v-0.2852
					c0-0.190399,0.047401-0.3613,0.142601-0.503901c0.075699-0.1045,0.256302-0.3232,0.389206-0.417999
					c0.152306-0.114201,0.380302-0.180599,0.579498-0.180599h0.988297c0.199203,0,0.427299,0.066399,0.579605,0.180599
					c0.132797,0.094799,0.351097,0.351601,0.427299,0.4561c0.057098,0.076189,0.114197,0.1611,0.132797,0.209l-0.493698,0.1709
					c-0.076202-0.1612-0.304199-0.3985-0.456001-0.4844c-0.047401-0.028311-0.0952-0.038101-0.161697-0.038101h-1.006798
					c-0.066406,0-0.123505,0.00979-0.170906,0.038101c-0.152298,0.085899-0.323196,0.2568-0.408699,0.417999
					c-0.018997,0.038099-0.028297,0.09469-0.028297,0.1611v0.2852c0,0.19039,0.161095,0.333,0.360794,0.3515l1.567406,0.124001
					c0.465401,0.038099,0.826706,0.398499,0.826706,0.8643v0.341799C110.739029,30.868895,110.69162,31.039795,110.59642,31.182394z
					"/>
				<path d="M116.809822,31.733194l-0.056702-0.4746c-0.115204,0.122999-0.257797,0.247099-0.361298,0.322199
					c-0.142601,0.10449-0.304703,0.200201-0.465797,0.200201h-0.835907c-0.218796,0-0.427795-0.066401-0.579094-0.180599
					c-0.124107-0.104502-0.342804-0.341801-0.417999-0.446301c-0.095703-0.142601-0.142609-0.313499-0.142609-0.503901v-0.190399
					c0-0.199301,0.046906-0.360401,0.142609-0.503c0.075195-0.104511,0.293892-0.341801,0.417999-0.446301
					c0.151299-0.11421,0.360298-0.180599,0.579094-0.180599h1.653305v-0.580101c0-0.075199-0.009804-0.1231-0.0196-0.1514
					c-0.085907-0.162109-0.303703-0.3799-0.456001-0.465799c-0.047905-0.028311-0.1045-0.038101-0.170906-0.038101h-0.892593
					c-0.066406,0-0.114204,0.00979-0.162102,0.038101c-0.152298,0.085899-0.351601,0.313499-0.455101,0.4746l-0.494095-0.1611
					c0.027298-0.047899,0.075195-0.132811,0.142593-0.218811c0.0849-0.122999,0.2939-0.35149,0.426704-0.455999
					c0.152397-0.113289,0.351601-0.170889,0.570297-0.170889h0.8741c0.218697,0,0.436501,0.066399,0.588799,0.180599
					c0.142601,0.086,0.351601,0.341801,0.426804,0.446289c0.105499,0.142611,0.133797,0.323311,0.133797,0.51371v2.3174
					l0.066399,0.674801H116.809822z M116.743423,30.678493v-0.8545h-1.6446c-0.066406,0-0.123001,0.008801-0.169907,0.038101
					c-0.152298,0.084999-0.351494,0.284189-0.4375,0.446299c-0.019501,0.038101-0.028297,0.08489-0.028297,0.151402v0.190399
					c0,0.066401,0.008797,0.114201,0.028297,0.1523c0.086006,0.1612,0.285202,0.360401,0.4375,0.446301
					c0.046906,0.028299,0.1035,0.038099,0.169907,0.038099h0.798897c0.046799,0,0.094696-0.0098,0.132797-0.028299
					C116.182823,31.182394,116.619423,30.906994,116.743423,30.678493z"/>
				<path d="M121.132027,28.607195c-0.095703-0.1416-0.304604-0.3887-0.456001-0.4746
					c-0.047905-0.028311-0.104507-0.038101-0.170906-0.038101h-0.465797c-0.047905,0-0.1045,0.00979-0.142601,0.028301
					c-0.161102,0.085999-0.588898,0.3428-0.721695,0.580099v3.0303h-0.513702v-3.4102l-0.056602-0.674799h0.513702l0.056602,0.4844
					c0.123093-0.123001,0.246094-0.256802,0.361298-0.332001c0.132896-0.095699,0.3125-0.200199,0.474701-0.200199h0.474594
					c0.2089,0,0.427704,0.066399,0.580002,0.180599c0.132896,0.094799,0.341797,0.351601,0.417999,0.4561
					c0.056702,0.076189,0.113297,0.1611,0.142601,0.209L121.132027,28.607195z"/>
				<path d="M123.458221,28.142395v2.431599c0,0.066401,0.009804,0.142601,0.029297,0.1807
					c0.085999,0.1611,0.275398,0.3613,0.427803,0.446301c0.046799,0.02829,0.123001,0.038,0.1894,0.038h0.598602v0.4942h-0.608406
					c-0.208893,0-0.427696-0.066401-0.579094-0.1807c-0.132797-0.0947-0.351501-0.3515-0.426704-0.455999
					c-0.095695-0.142601-0.142601-0.313499-0.142601-0.503v-2.451099h-0.675797v-0.4942h0.675797v-1.6152h0.511703v1.6152h1.254898
					v0.4942H123.458221z"/>
				<path d="M128.817627,31.182394c-0.076202,0.1045-0.256805,0.323299-0.390594,0.418001
					c-0.151413,0.114199-0.378906,0.180599-0.579109,0.180599h-1.139702c-0.199196,0-0.427704-0.066401-0.580101-0.180599
					c-0.132797-0.094702-0.341805-0.341801-0.4179-0.446301c-0.046898-0.0762-0.113304-0.1719-0.132797-0.218811l0.494095-0.170889
					c0.076202,0.1612,0.294899,0.3985,0.447304,0.4844c0.046799,0.028299,0.1035,0.038099,0.169899,0.038099h1.150398
					c0.066399,0,0.113304-0.0098,0.161095-0.038099c0.151413-0.085899,0.333008-0.2666,0.417999-0.4277
					c0.018509-0.038099,0.028305-0.0947,0.028305-0.1612v-0.341702c0-0.190498-0.162094-0.333099-0.361298-0.351599
					l-1.566399-0.114311c-0.466797-0.03809-0.827202-0.399389-0.827202-0.864189v-0.2852
					c0-0.190399,0.047897-0.3613,0.142601-0.503901c0.075195-0.1045,0.256805-0.3232,0.389595-0.417999
					c0.152405-0.114201,0.379906-0.180599,0.579102-0.180599h0.988304c0.199196,0,0.426811,0.066399,0.579094,0.180599
					c0.132797,0.094799,0.351608,0.351601,0.427811,0.4561c0.056595,0.076189,0.114197,0.1611,0.132797,0.209l-0.494202,0.1709
					c-0.076096-0.1612-0.303696-0.3985-0.455002-0.4844c-0.047897-0.028311-0.095695-0.038101-0.162201-0.038101h-1.006798
					c-0.066399,0-0.124001,0.00979-0.170898,0.038101c-0.152306,0.085899-0.323204,0.2568-0.408203,0.417999
					c-0.019501,0.038099-0.029297,0.09469-0.029297,0.1611v0.2852c0,0.19039,0.162094,0.333,0.361298,0.3515l1.567406,0.124001
					c0.46579,0.038099,0.827194,0.398499,0.827194,0.8643v0.341799C128.96022,30.868895,128.912323,31.039795,128.817627,31.182394z
					"/>
				<path d="M135.057816,31.600395c-0.152298,0.114199-0.370102,0.180599-0.579102,0.180599h-0.969681
					c-0.209,0-0.436508-0.066401-0.587921-0.180599c-0.132797-0.094702-0.351593-0.351601-0.427689-0.456112
					c-0.095703-0.14259-0.132797-0.31349-0.132797-0.503889v-1.899401c0-0.190399,0.037094-0.3613,0.132797-0.503899
					c0.076096-0.1045,0.294891-0.361301,0.427689-0.4561c0.151413-0.114201,0.378922-0.180599,0.587921-0.180599h0.941391
					c0.209,0,0.427689,0.066399,0.579102,0.180599c0.237289,0.1709,0.436508,0.475599,0.560593,0.674801l-0.494202,0.1612
					c-0.075195-0.1612-0.303696-0.3985-0.455994-0.4844c-0.04689-0.028311-0.103607-0.038101-0.170898-0.038101h-0.950211
					c-0.066391,0-0.123093,0.00979-0.169998,0.038101c-0.152298,0.085899-0.361298,0.30369-0.447189,0.465799
					c-0.019592,0.038099-0.028305,0.094799-0.028305,0.1612v1.862301c0,0.066389,0.008713,0.122999,0.028305,0.1611
					c0.085892,0.1621,0.285095,0.3799,0.4375,0.465799c0.046906,0.028299,0.1035,0.038099,0.169907,0.038099h0.988281
					c0.066406,0,0.124008-0.0098,0.171906-0.038099c0.151306-0.085899,0.378906-0.3232,0.445297-0.465799l0.009705-0.0186
					l0.494202,0.170889C135.505127,31.144283,135.286316,31.438284,135.057816,31.600395z"/>
				<path d="M139.807816,31.144283c-0.075195,0.104511-0.2939,0.36141-0.426697,0.456112
					c-0.151398,0.114199-0.379898,0.180599-0.588898,0.180599h-0.950195c-0.209,0-0.436508-0.066401-0.588913-0.180599
					c-0.132797-0.094702-0.351486-0.351601-0.427689-0.456112c-0.094711-0.14259-0.132797-0.31349-0.132797-0.503889v-1.899401
					c0-0.190399,0.038086-0.3613,0.132797-0.503899c0.076202-0.1045,0.294891-0.361301,0.427689-0.4561
					c0.152405-0.114201,0.379913-0.180599,0.588913-0.180599h0.950195c0.209,0,0.4375,0.066399,0.588898,0.180599
					c0.132797,0.094799,0.351501,0.351601,0.426697,0.4561c0.095703,0.142599,0.133804,0.313499,0.133804,0.503899v1.899401
					C139.94162,30.830793,139.903519,31.001694,139.807816,31.144283z M139.428925,28.759594c0-0.066401,0-0.1231-0.019501-0.1612
					c-0.085907-0.162109-0.303711-0.3799-0.4561-0.465799c-0.047806-0.028311-0.104507-0.038101-0.170898-0.038101h-0.93161
					c-0.066391,0-0.123001,0.00979-0.169891,0.038101c-0.152405,0.085899-0.361404,0.30369-0.447311,0.465799
					c-0.018494,0.038099-0.02829,0.094799-0.02829,0.1612v1.862301c0,0.066389,0.009796,0.122999,0.02829,0.1611
					c0.085907,0.1621,0.294907,0.3799,0.447311,0.465799c0.04689,0.028299,0.1035,0.038099,0.169891,0.038099h0.93161
					c0.066391,0,0.123093-0.0098,0.170898-0.038099c0.15239-0.085899,0.370193-0.303699,0.4561-0.465799
					c0.019501-0.038101,0.019501-0.094711,0.019501-0.1611V28.759594z"/>
				<path d="M143.930923,31.733194l-0.056702-0.4746c-0.11319,0.122999-0.247009,0.247099-0.351501,0.322199
					c-0.132797,0.095701-0.313507,0.200201-0.474594,0.200201h-0.712906c-0.209,0-0.4366-0.066401-0.588898-0.180599
					c-0.132797-0.094702-0.351608-0.351601-0.426804-0.456112c-0.095703-0.14259-0.133698-0.31349-0.133698-0.503889v-2.992199
					h0.512695v2.9737c0,0.066389,0,0.122999,0.019516,0.1611c0.085892,0.1621,0.30368,0.3799,0.455994,0.465799
					c0.047897,0.028299,0.104492,0.038099,0.170898,0.038099h0.673889c0.048798,0,0.095703-0.0098,0.133804-0.028299
					c0.161102-0.086,0.569305-0.3428,0.711899-0.570311v-3.040089h0.513596v3.410198l0.066406,0.674801H143.930923z"/>
				<path d="M148.471924,31.733194v-2.9736c0-0.066401,0-0.1231-0.0186-0.1612c-0.0849-0.162109-0.303711-0.3799-0.456009-0.465799
					c-0.04689-0.028311-0.104492-0.038101-0.170898-0.038101h-0.674789c-0.046906,0-0.094711,0.00979-0.132812,0.028301
					c-0.162094,0.085999-0.570297,0.3428-0.712891,0.570398v3.040001h-0.512711v-3.4102l-0.066391-0.674799h0.512695
					l0.056595,0.4746c0.115204-0.123001,0.248108-0.247002,0.351608-0.322201
					c0.133804-0.095699,0.314392-0.200199,0.475601-0.200199h0.711899c0.209,0,0.4375,0.066399,0.589813,0.180599
					c0.132782,0.094799,0.351593,0.351601,0.42778,0.4561c0.094711,0.142599,0.132812,0.313499,0.132812,0.503899v2.992201
					H148.471924z"/>
				<path d="M152.994415,31.600395c-0.15239,0.114199-0.370193,0.180599-0.579102,0.180599h-0.969788
					c-0.209,0-0.436493-0.066401-0.588806-0.180599c-0.132904-0.094702-0.351608-0.351601-0.427795-0.456112
					c-0.094711-0.14259-0.132812-0.31349-0.132812-0.503889v-1.899401c0-0.190399,0.038101-0.3613,0.132812-0.503899
					c0.076187-0.1045,0.294891-0.361301,0.427795-0.4561c0.152313-0.114201,0.379807-0.180599,0.588806-0.180599h0.940506
					c0.208893,0,0.427689,0.066399,0.580002,0.180599c0.237289,0.1709,0.436584,0.475599,0.560577,0.674801l-0.494186,0.1612
					c-0.076111-0.1612-0.304611-0.3985-0.456009-0.4844c-0.047897-0.028311-0.104492-0.038101-0.170898-0.038101h-0.950195
					c-0.066406,0-0.124008,0.00979-0.170898,0.038101c-0.15239,0.085899-0.361298,0.30369-0.447311,0.465799
					c-0.018494,0.038099-0.027298,0.094799-0.027298,0.1612v1.862301c0,0.066389,0.008804,0.122999,0.027298,0.1611
					c0.086014,0.1621,0.285202,0.3799,0.4375,0.465799c0.046906,0.028299,0.104507,0.038099,0.170914,0.038099h0.988297
					c0.066391,0,0.123993-0.0098,0.170898-0.038099c0.152313-0.085899,0.379898-0.3232,0.446304-0.465799l0.009796-0.0186
					l0.494095,0.170889C153.440613,31.144283,153.221924,31.438284,152.994415,31.600395z"/>
				<path d="M154.722916,26.593494v-0.607401h0.588806v0.607401H154.722916z M154.761032,31.733194v-4.084999h0.51358v4.084999
					H154.761032z"/>
				<path d="M156.774612,31.733194c-0.018494-0.1611-0.0849-0.3701-0.0849-0.5322v-5.167999h0.512711v5.053699
					c0,0.209999,0.066391,0.4375,0.085892,0.6465H156.774612z"/>
			</g>
		</g>
		<g>
			<path d="M84.677521,50.447994h-2.422401v-2.435501h-2.862801v0.375c0,1.7607,1.230499,2.992199,2.993202,2.992199h2.1474
				c1.764198,0,2.994698-1.231499,2.994698-2.992199v-0.375h-2.850098V50.447994z M84.532921,42.405094h-2.1474
				c-1.762703,0-2.993202,1.234299-2.993202,2.993099v0.3428h2.841301v-2.402298h2.443901v2.402298h2.850098v-0.3428
				C87.527618,43.639393,86.297119,42.405094,84.532921,42.405094z"/>
			<path d="M66.579819,49.445095h-2.148399c-0.710999,0-1.057198-0.3447-1.057198-1.057602v-2.9893
				c0-0.71191,0.346199-1.055599,1.057198-1.055599h2.148399c0.691399,0,1.056206,0.3652,1.056206,1.055599v2.9893
				C67.636024,49.077892,67.271217,49.444096,66.579819,49.445095z M66.579819,42.356194h-2.148399
				c-1.792,0-3.041496,1.251999-3.041496,3.042v9.450199l1.984299,0.002003c0,0,0-3.611401,0-3.624001
				c0.004898,0.018497,0.083,0.043888,0.083,0.043888c0.3619,0.10741,0.670502,0.158211,0.974197,0.158211h2.148399
				c1.791504,0,3.041504-1.249001,3.041504-3.041v-2.9893C69.621323,43.608192,68.371323,42.356194,66.579819,42.356194z"/>
			<path d="M95.591026,42.356194h-2.147903c-0.2798,0-0.600098,0.056702-0.972702,0.170002l-0.104004,0.028297v-3.450211h-1.949699
				l-0.014099,12.324211h1.963799v-6.0303c0-0.679699,0.382805-1.055599,1.076706-1.055599h2.147903
				c0.712395,0,1.057594,0.343689,1.057594,1.055599v6.0303h1.984406v-6.0303
				C98.633026,43.608192,97.383026,42.356194,95.591026,42.356194z"/>
			<path d="M149.345917,51.428493h1.967804v-9.070301l-1.968796-0.001999L149.345917,51.428493z M151.313721,39.115993h-1.967804
				l-0.000992,2.086899h1.968796V39.115993z"/>
			<path d="M146.267822,44.342594l0.002899-1.984402l-2.698196-0.001999v-3.2402h-1.981491l-0.002914,3.242199l-1.734406-0.001999
				v1.986401h1.73732l-0.002914,4.044899c0,1.818302,1.223602,3.041,3.043915,3.041h1.603592v-1.9687l-1.603592,0.0009
				c-0.712814,0-1.059509-0.360298-1.059509-1.0732v-4.044899H146.267822z"/>
			<path d="M115.562721,49.460693c-0.710899,0-1.055695-0.360298-1.055695-1.0732v-9.263699h-1.970703l-0.001907,9.263699
				c0,1.818302,1.208,3.041,3.028305,3.041h1.628899v-1.9687L115.562721,49.460693z"/>
			<path d="M75.182823,42.363995c-1.819305,0-3.0429,1.224701-3.0429,3.0411v6.023399h1.985298v-6.023399
				c0-0.710999,0.346703-1.056702,1.057602-1.056702h2.3853v-1.982399L75.182823,42.363995z"/>
			<path d="M125.360619,42.364994l-0.884796,3.141602l-0.945305,3.4063c-0.160194,0.544899-0.171898,0.589798-0.565399,0.589798
				c-0.386795,0-0.405296-0.034199-0.532295-0.48241l-1.8554-6.655289h-2.070396l1.996094,7.1026
				c0.427803,1.4902,1.072296,2.019501,2.461998,2.019501c1.389603,0,2.037102-0.539101,2.465797-2.058601l1.984406-7.063499
				H125.360619z"/>
			<path d="M104.519722,44.229282h2.148499c0.777298,0,1.171898,0.394512,1.171898,1.168911v0.606499h-4.489296v-0.606499
				C103.350822,44.643284,103.765823,44.229282,104.519722,44.229282z M106.668221,42.356194h-2.148499
				c-1.790001,0-3.040001,1.251999-3.040001,3.042v2.9893c0,1.792,1.25,3.041,3.040001,3.041h4.725601v-1.9687l-4.815407,0.0009
				c-0.692398,0-1.057594-0.382801-1.057594-1.0732v-0.5205h4.953094c0.668007,0,1.384804-0.524399,1.384804-1.3955v-1.073299
				C109.71022,43.608192,108.46022,42.356194,106.668221,42.356194z"/>
			<path d="M131.33522,45.584793c0-0.824299,0.459-1.355511,1.169907-1.355511h2.148392
				c0.775406,0,1.169006,0.394512,1.169006,1.168911v0.606499h-4.487305V45.584793z M134.653519,42.356194h-2.148392
				c-1.792007,0-3.043015,1.251999-3.043015,3.042v2.9893c0,1.792,1.251007,3.041,3.043015,3.041h4.723587v-1.9687l-4.8134,0.0009
				c-0.691498,0-1.056702-0.382801-1.056702-1.0732v-0.528297h4.95311c0.666092,0,1.384796-0.516602,1.384796-1.387703v-1.073299
				C137.696518,43.608192,136.444519,42.356194,134.653519,42.356194z"/>
			<path d="M159.739517,49.559395h-2.674805c-1.049789,0-1.168991-0.512699-1.168991-0.898502
				c0-0.6465,0.192398-0.8144,1.036194-0.898399l3.083008-0.333c0.001892,0,0.385696-0.086899,0.404297-0.090797l0.001892,1.554588
				C160.421112,49.359196,160.204315,49.559395,159.739517,49.559395z M159.270721,42.356194h-3.982407v1.986401h3.982407
				c0.6035,0,0.941391,0.2812,1.001999,0.836899v0.1357c-0.0215,0.119202-0.115295,0.208-0.504898,0.265602l-3.01561,0.309597
				c-2.375,0.256893-2.729492,1.843803-2.729492,2.7705c0,1.912102,1.526306,2.767601,3.041992,2.767601h2.674805
				c1.494095,0,2.533203-1.042999,2.533203-2.53521v-3.49509C162.27272,43.608192,161.040314,42.356194,159.270721,42.356194z"/>
		</g>
	</g>
</g>
<g id="Guides" class="st1">
</g>
</svg>
