<svg width="105" height="33" viewBox="0 0 105 33" fill="none" xmlns="http://www.w3.org/2000/svg">
<path d="M34.2463 7.18259C34.1701 7.28709 33.99 7.50589 33.8567 7.60059C33.7048 7.71479 33.4768 7.78119 33.2771 7.78119H32.1374C31.9377 7.78119 31.7097 7.71479 31.5578 7.60059C31.4245 7.50589 31.2155 7.25879 31.1399 7.15429C31.0925 7.07809 31.0256 6.98239 31.0066 6.93548L31.5007 6.76459C31.5769 6.92579 31.7951 7.16309 31.9475 7.24899C31.9948 7.27729 32.052 7.28709 32.1184 7.28709H33.2678C33.3342 7.28709 33.3816 7.27729 33.4294 7.24899C33.5813 7.16309 33.7619 6.98239 33.8474 6.82129C33.8664 6.78319 33.8757 6.72659 33.8757 6.66009V6.31838C33.8757 6.12789 33.7141 5.98529 33.5149 5.96679L31.9475 5.85247C31.4817 5.81438 31.1208 5.45309 31.1208 4.98829V4.70308C31.1208 4.51269 31.1682 4.34179 31.2634 4.19918C31.3391 4.09468 31.5197 3.87598 31.6526 3.78119C31.8049 3.66698 32.0329 3.60059 32.2321 3.60059H33.2204C33.4196 3.60059 33.6477 3.66699 33.8 3.78119C33.9328 3.87598 34.1511 4.13279 34.2273 4.23729C34.2844 4.31347 34.3415 4.39839 34.3601 4.44629L33.8664 4.61719C33.7903 4.45599 33.5622 4.21869 33.4104 4.13279C33.363 4.10447 33.3152 4.09468 33.2487 4.09468H32.2419C32.1755 4.09468 32.1184 4.10447 32.071 4.13279C31.9187 4.21868 31.7478 4.38959 31.6623 4.55079C31.6433 4.58888 31.634 4.64548 31.634 4.71189V4.99709C31.634 5.18748 31.7951 5.33009 31.9948 5.34859L33.5622 5.47259C34.0276 5.51068 34.3889 5.87108 34.3889 6.33689V6.67868C34.3889 6.86909 34.3415 7.03999 34.2463 7.18259Z" fill="black"/>
<path d="M39.8797 7.73344H39.1673L38.1605 4.24714L37.1912 7.73344H36.4788L35.2913 3.64844H35.8426L36.8113 7.18264H36.8685L37.7996 3.64844H38.5311L39.4998 7.18264H39.557L40.4881 3.64844H41.0296L39.8797 7.73344Z" fill="black"/>
<path d="M41.9788 2.59373V1.98633H42.5682V2.59373H41.9788ZM42.0169 7.73343V3.64843H42.5301V7.73343H42.0169Z" fill="black"/>
<path d="M46.9476 7.18259C46.8714 7.28709 46.6912 7.50589 46.5579 7.60059C46.4061 7.71479 46.178 7.78119 45.9783 7.78119H44.8387C44.639 7.78119 44.411 7.71479 44.2591 7.60059C44.1258 7.50589 43.9168 7.25879 43.8411 7.15429C43.7938 7.07809 43.7269 6.98239 43.7078 6.93548L44.202 6.76459C44.2781 6.92579 44.4964 7.16309 44.6488 7.24899C44.6961 7.27729 44.7532 7.28709 44.8196 7.28709H45.9691C46.0355 7.28709 46.0828 7.27729 46.1307 7.24899C46.2825 7.16309 46.4632 6.98239 46.5487 6.82129C46.5677 6.78319 46.577 6.72659 46.577 6.66009V6.31838C46.577 6.12789 46.4154 5.98529 46.2161 5.96679L44.6488 5.85247C44.1829 5.81438 43.8221 5.45309 43.8221 4.98829V4.70308C43.8221 4.51269 43.8695 4.34179 43.9647 4.19918C44.0404 4.09468 44.221 3.87598 44.3538 3.78119C44.5062 3.66698 44.7342 3.60059 44.9334 3.60059H45.9217C46.1209 3.60059 46.3489 3.66699 46.5013 3.78119C46.6341 3.87598 46.8524 4.13279 46.9285 4.23729C46.9857 4.31347 47.0428 4.39839 47.0613 4.44629L46.5677 4.61719C46.4915 4.45599 46.2635 4.21869 46.1116 4.13279C46.0643 4.10447 46.0164 4.09468 45.95 4.09468H44.9432C44.8768 4.09468 44.8196 4.10447 44.7723 4.13279C44.6199 4.21868 44.449 4.38959 44.3636 4.55079C44.3446 4.58888 44.3353 4.64548 44.3353 4.71189V4.99709C44.3353 5.18748 44.4964 5.33009 44.6961 5.34859L46.2635 5.47259C46.7288 5.51068 47.0902 5.87108 47.0902 6.33689V6.67868C47.0902 6.86909 47.0428 7.03999 46.9476 7.18259Z" fill="black"/>
<path d="M51.384 7.18259C51.3078 7.28709 51.1277 7.50589 50.9944 7.60059C50.8425 7.71479 50.6145 7.78119 50.4148 7.78119H49.2751C49.0754 7.78119 48.8474 7.71479 48.6955 7.60059C48.5622 7.50589 48.3532 7.25879 48.2776 7.15429C48.2302 7.07809 48.1633 6.98239 48.1443 6.93548L48.6384 6.76459C48.7146 6.92579 48.9328 7.16309 49.0852 7.24899C49.1325 7.27729 49.1897 7.28709 49.2561 7.28709H50.4055C50.4719 7.28709 50.5193 7.27729 50.5671 7.24899C50.719 7.16309 50.8996 6.98239 50.9851 6.82129C51.0041 6.78319 51.0134 6.72659 51.0134 6.66009V6.31838C51.0134 6.12789 50.8518 5.98529 50.6526 5.96679L49.0852 5.85247C48.6194 5.81438 48.2585 5.45309 48.2585 4.98829V4.70308C48.2585 4.51269 48.3059 4.34179 48.4011 4.19918C48.4768 4.09468 48.6574 3.87598 48.7903 3.78119C48.9426 3.66698 49.1706 3.60059 49.3698 3.60059H50.3581C50.5573 3.60059 50.7854 3.66699 50.9377 3.78119C51.0705 3.87598 51.2888 4.13279 51.365 4.23729C51.4221 4.31347 51.4792 4.39839 51.4978 4.44629L51.0041 4.61719C50.9279 4.45599 50.6999 4.21869 50.5481 4.13279C50.5007 4.10447 50.4529 4.09468 50.3864 4.09468H49.3796C49.3132 4.09468 49.2561 4.10447 49.2087 4.13279C49.0564 4.21868 48.8855 4.38959 48.8 4.55079C48.781 4.58888 48.7717 4.64548 48.7717 4.71189V4.99709C48.7717 5.18748 48.9328 5.33009 49.1325 5.34859L50.6999 5.47259C51.1653 5.51068 51.5266 5.87108 51.5266 6.33689V6.67868C51.5266 6.86909 51.4792 7.03999 51.384 7.18259Z" fill="black"/>
<path d="M57.5974 7.73339L57.5407 7.25879C57.4255 7.38178 57.2829 7.50588 57.1794 7.58098C57.0368 7.68547 56.8747 7.78119 56.7136 7.78119H55.8777C55.6589 7.78119 55.4499 7.71478 55.2986 7.60059C55.1745 7.49608 54.9558 7.25879 54.8806 7.15429C54.7849 7.01168 54.738 6.84078 54.738 6.65038V6.45998C54.738 6.26068 54.7849 6.09958 54.8806 5.95699C54.9558 5.85247 55.1745 5.61518 55.2986 5.51068C55.4499 5.39647 55.6589 5.33008 55.8777 5.33008H57.531V4.74998C57.531 4.67478 57.5212 4.62688 57.5114 4.59858C57.4255 4.43647 57.2077 4.21868 57.0554 4.13278C57.0075 4.10447 56.9509 4.09468 56.8845 4.09468H55.9919C55.9255 4.09468 55.8777 4.10447 55.8298 4.13278C55.6775 4.21868 55.4782 4.44628 55.3747 4.60739L54.8806 4.44629C54.9079 4.39839 54.9558 4.31347 55.0232 4.22747C55.1081 4.10448 55.3171 3.87598 55.4499 3.77147C55.6023 3.65819 55.8015 3.60059 56.0202 3.60059H56.8943C57.113 3.60059 57.3308 3.66699 57.4831 3.78119C57.6257 3.86719 57.8347 4.12299 57.9099 4.22747C58.0154 4.37009 58.0437 4.55079 58.0437 4.74118V7.05858L58.1101 7.73339H57.5974ZM57.531 6.67868V5.82418H55.8864C55.82 5.82418 55.7634 5.83299 55.7165 5.86229C55.5642 5.94728 55.365 6.14647 55.279 6.30858C55.2595 6.34669 55.2507 6.39347 55.2507 6.45999V6.65038C55.2507 6.71679 55.2595 6.76459 55.279 6.80268C55.365 6.96388 55.5642 7.16309 55.7165 7.24899C55.7634 7.27728 55.82 7.28708 55.8864 7.28708H56.6853C56.7321 7.28708 56.78 7.27728 56.8181 7.25879C56.9704 7.18258 57.407 6.90719 57.531 6.67868Z" fill="black"/>
<path d="M61.9196 4.60739C61.8239 4.46579 61.615 4.21869 61.4636 4.13279C61.4157 4.10447 61.3591 4.09468 61.2927 4.09468H60.8269C60.779 4.09468 60.7224 4.10447 60.6843 4.12299C60.5232 4.20898 60.0954 4.46579 59.9626 4.70308V7.73339H59.4489V4.32318L59.3923 3.64839H59.906L59.9626 4.13279C60.0857 4.00978 60.2087 3.87598 60.3239 3.80079C60.4568 3.70509 60.6364 3.60059 60.7986 3.60059H61.2732C61.4821 3.60059 61.7009 3.66699 61.8532 3.78119C61.9861 3.87598 62.195 4.13279 62.2712 4.23729C62.3279 4.31347 62.3845 4.39839 62.4138 4.44629L61.9196 4.60739Z" fill="black"/>
<path d="M64.2458 4.1426V6.5742C64.2458 6.6406 64.2557 6.7168 64.2751 6.7549C64.3611 6.916 64.5505 7.1162 64.7029 7.2012C64.7497 7.22949 64.826 7.2392 64.8923 7.2392H65.491V7.7334H64.8825C64.6737 7.7334 64.4548 7.667 64.3035 7.5527C64.1707 7.458 63.952 7.2012 63.8767 7.0967C63.7811 6.9541 63.7341 6.7832 63.7341 6.5937V4.1426H63.0583V3.6484H63.7341V2.0332H64.2458V3.6484H65.5007V4.1426L64.2458 4.1426Z" fill="black"/>
<path d="M69.6052 7.18259C69.529 7.28709 69.3484 7.50589 69.2146 7.60059C69.0632 7.71479 68.8357 7.78119 68.6355 7.78119H67.4958C67.2966 7.78119 67.0681 7.71479 66.9157 7.60059C66.7829 7.50589 66.5739 7.25879 66.4978 7.15429C66.4509 7.07809 66.3845 6.98239 66.365 6.93548L66.8591 6.76459C66.9353 6.92579 67.154 7.16309 67.3064 7.24899C67.3532 7.27729 67.4099 7.28709 67.4763 7.28709H68.6267C68.6931 7.28709 68.74 7.27729 68.7878 7.24899C68.9392 7.16309 69.1208 6.98239 69.2058 6.82129C69.2243 6.78319 69.2341 6.72659 69.2341 6.66009V6.31838C69.2341 6.12789 69.072 5.98529 68.8728 5.96679L67.3064 5.85247C66.8396 5.81438 66.4792 5.45309 66.4792 4.98829V4.70308C66.4792 4.51269 66.5271 4.34179 66.6218 4.19918C66.697 4.09468 66.8786 3.87598 67.0114 3.78119C67.1638 3.66698 67.3913 3.60059 67.5905 3.60059H68.5788C68.778 3.60059 69.0056 3.66699 69.1579 3.78119C69.2907 3.87598 69.5095 4.13279 69.5857 4.23729C69.6423 4.31347 69.6999 4.39839 69.7185 4.44629L69.2243 4.61719C69.1482 4.45599 68.9206 4.21869 68.7693 4.13279C68.7214 4.10447 68.6736 4.09468 68.6071 4.09468H67.6003C67.5339 4.09468 67.4763 4.10447 67.4294 4.13279C67.2771 4.21868 67.1062 4.38959 67.0212 4.55079C67.0017 4.58888 66.9919 4.64548 66.9919 4.71189V4.99709C66.9919 5.18748 67.154 5.33009 67.3532 5.34859L68.9206 5.47259C69.3864 5.51068 69.7478 5.87108 69.7478 6.33689V6.67868C69.7478 6.86909 69.6999 7.03999 69.6052 7.18259Z" fill="black"/>
<path d="M75.8454 7.60059C75.6931 7.71478 75.4753 7.78119 75.2663 7.78119H74.2966C74.0876 7.78119 73.8601 7.71478 73.7087 7.60059C73.5759 7.50588 73.3571 7.24899 73.281 7.14447C73.1853 7.00188 73.1482 6.83098 73.1482 6.64058V4.74118C73.1482 4.55079 73.1853 4.37988 73.281 4.23729C73.3571 4.13279 73.5759 3.87598 73.7087 3.78119C73.8601 3.66698 74.0876 3.60059 74.2966 3.60059H75.238C75.447 3.60059 75.6657 3.66699 75.8171 3.78119C76.0544 3.95209 76.2536 4.25678 76.3777 4.45599L75.8835 4.61719C75.8083 4.45599 75.5798 4.21869 75.4275 4.13279C75.3806 4.10447 75.3239 4.09468 75.2566 4.09468H74.3064C74.24 4.09468 74.1833 4.10447 74.1364 4.13279C73.9841 4.21868 73.7751 4.43648 73.6892 4.59859C73.6696 4.63668 73.6609 4.69338 73.6609 4.75978V6.62209C73.6609 6.68847 73.6696 6.74508 73.6892 6.78319C73.7751 6.94529 73.9743 7.16309 74.1267 7.24899C74.1736 7.27728 74.2302 7.28708 74.2966 7.28708H75.2849C75.3513 7.28708 75.4089 7.27728 75.4568 7.24899C75.6081 7.16309 75.8357 6.92578 75.9021 6.78319L75.9118 6.76459L76.406 6.93547C76.2927 7.14447 76.0739 7.43847 75.8454 7.60059Z" fill="black"/>
<path d="M80.5954 7.14447C80.5202 7.24899 80.3015 7.50588 80.1687 7.60059C80.0173 7.71478 79.7888 7.78119 79.5798 7.78119H78.6296C78.4206 7.78119 78.1931 7.71478 78.0407 7.60059C77.9079 7.50588 77.6892 7.24899 77.613 7.14447C77.5183 7.00188 77.4802 6.83098 77.4802 6.64058V4.74118C77.4802 4.55079 77.5183 4.37988 77.613 4.23729C77.6892 4.13279 77.9079 3.87598 78.0407 3.78119C78.1931 3.66698 78.4206 3.60059 78.6296 3.60059H79.5798C79.7888 3.60059 80.0173 3.66699 80.1687 3.78119C80.3015 3.87598 80.5202 4.13279 80.5954 4.23729C80.6911 4.37988 80.7292 4.55078 80.7292 4.74118V6.64058C80.7292 6.83098 80.6911 7.00189 80.5954 7.14447ZM80.2165 4.75978C80.2165 4.69338 80.2165 4.63669 80.197 4.59859C80.1111 4.43648 79.8933 4.21868 79.7409 4.13279C79.6931 4.10447 79.6364 4.09468 79.57 4.09468H78.6384C78.572 4.09468 78.5154 4.10447 78.4685 4.13279C78.3161 4.21868 78.1071 4.43648 78.0212 4.59859C78.0027 4.63668 77.9929 4.69338 77.9929 4.75978V6.62209C77.9929 6.68847 78.0027 6.74508 78.0212 6.78319C78.1071 6.94529 78.3161 7.16309 78.4685 7.24899C78.5154 7.27728 78.572 7.28708 78.6384 7.28708H79.57C79.6364 7.28708 79.6931 7.27728 79.7409 7.24899C79.8933 7.16309 80.1111 6.94529 80.197 6.78319C80.2165 6.74508 80.2165 6.68847 80.2165 6.62209V4.75978Z" fill="black"/>
<path d="M84.7185 7.73344L84.6618 7.25884C84.5486 7.38184 84.4148 7.50594 84.3103 7.58104C84.1775 7.67674 83.9968 7.78124 83.8357 7.78124H83.1228C82.9138 7.78124 82.6862 7.71484 82.5339 7.60064C82.4011 7.50594 82.1823 7.24904 82.1071 7.14453C82.0114 7.00194 81.9734 6.83104 81.9734 6.64064V3.64844H82.4861V6.62214C82.4861 6.68853 82.4861 6.74514 82.5056 6.78324C82.5915 6.94534 82.8093 7.16314 82.9616 7.24904C83.0095 7.27734 83.0661 7.28714 83.1325 7.28714H83.8064C83.8552 7.28714 83.9021 7.27734 83.9402 7.25884C84.1013 7.17284 84.5095 6.91604 84.6521 6.68853V3.64844H85.1657V7.05864L85.2321 7.73344L84.7185 7.73344Z" fill="black"/>
<path d="M89.2595 7.73339V4.75978C89.2595 4.69338 89.2595 4.63669 89.2409 4.59859C89.156 4.43648 88.9372 4.21868 88.7849 4.13279C88.738 4.10447 88.6804 4.09468 88.614 4.09468H87.9392C87.8923 4.09468 87.8445 4.10447 87.8064 4.12299C87.6443 4.20898 87.2361 4.46579 87.0935 4.69338V7.73339H86.5808V4.32318L86.5144 3.64839H87.0271L87.0837 4.12299C87.1989 3.99998 87.3318 3.87598 87.4353 3.80079C87.5691 3.70509 87.7497 3.60059 87.9109 3.60059H88.6228C88.8318 3.60059 89.0603 3.66699 89.2126 3.78119C89.3454 3.87598 89.5642 4.13279 89.6404 4.23729C89.7351 4.37988 89.7732 4.55078 89.7732 4.74118V7.73339H89.2595Z" fill="black"/>
<path d="M93.782 7.60059C93.6297 7.71478 93.4119 7.78119 93.2029 7.78119H92.2332C92.0242 7.78119 91.7967 7.71478 91.6443 7.60059C91.5114 7.50588 91.2927 7.24899 91.2166 7.14447C91.1218 7.00188 91.0837 6.83098 91.0837 6.64058V4.74118C91.0837 4.55079 91.1218 4.37988 91.2166 4.23729C91.2927 4.13279 91.5114 3.87598 91.6443 3.78119C91.7967 3.66698 92.0242 3.60059 92.2332 3.60059H93.1737C93.3826 3.60059 93.6013 3.66699 93.7537 3.78119C93.991 3.95209 94.1902 4.25678 94.3142 4.45599L93.8201 4.61719C93.7439 4.45599 93.5154 4.21869 93.364 4.13279C93.3161 4.10447 93.2596 4.09468 93.1931 4.09468H92.243C92.1765 4.09468 92.1189 4.10447 92.0721 4.13279C91.9197 4.21868 91.7108 4.43648 91.6247 4.59859C91.6062 4.63668 91.5974 4.69338 91.5974 4.75978V6.62209C91.5974 6.68847 91.6062 6.74508 91.6247 6.78319C91.7108 6.94529 91.9099 7.16309 92.0622 7.24899C92.1091 7.27728 92.1667 7.28708 92.2332 7.28708H93.2215C93.2878 7.28708 93.3454 7.27728 93.3923 7.24899C93.5447 7.16309 93.7722 6.92578 93.8387 6.78319L93.8484 6.76459L94.3425 6.93547C94.2282 7.14447 94.0096 7.43847 93.782 7.60059Z" fill="black"/>
<path d="M95.5105 2.59373V1.98633H96.0993V2.59373H95.5105ZM95.5486 7.73343V3.64843H96.0622V7.73343H95.5486Z" fill="black"/>
<path d="M97.5622 7.7334C97.5437 7.5723 97.4773 7.3633 97.4773 7.2012V2.0332H97.99V7.0869C97.99 7.2969 98.0564 7.5244 98.0759 7.7334H97.5622Z" fill="black"/>
<path d="M25.4651 26.4482H23.0427V24.0127H20.1799V24.3877C20.1799 26.1484 21.4104 27.3799 23.1731 27.3799H25.3205C27.0847 27.3799 28.3152 26.1484 28.3152 24.3877V24.0127H25.4651V26.4482ZM25.3205 18.4053H23.1731C21.4104 18.4053 20.1799 19.6396 20.1799 21.3984V21.7412H23.0212V19.3389H25.4651V21.7412H28.3152V21.3984C28.3152 19.6396 27.0847 18.4053 25.3205 18.4053Z" fill="black"/>
<path d="M7.36739 25.4453H5.21899C4.50799 25.4453 4.16179 25.1006 4.16179 24.3877V21.3984C4.16179 20.6865 4.50799 20.3428 5.21899 20.3428H7.36739C8.05878 20.3428 8.42359 20.708 8.42359 21.3984V24.3877C8.42359 25.0781 8.05878 25.4443 7.36739 25.4453ZM7.36739 18.3564H5.21899C3.42699 18.3564 2.17749 19.6084 2.17749 21.3984V30.8486L4.16179 30.8506C4.16179 30.8506 4.16179 27.2392 4.16179 27.2266C4.16669 27.2451 4.24479 27.2705 4.24479 27.2705C4.60669 27.3779 4.91529 27.4287 5.21899 27.4287H7.36739C9.15889 27.4287 10.4089 26.1797 10.4089 24.3877V21.3984C10.4089 19.6084 9.15889 18.3564 7.36739 18.3564Z" fill="black"/>
<path d="M36.3786 18.3564H34.2307C33.9509 18.3564 33.6306 18.4131 33.258 18.5264L33.154 18.5547V15.1045H31.2043L31.1902 27.4287H33.154V21.3984C33.154 20.7187 33.5368 20.3428 34.2307 20.3428H36.3786C37.091 20.3428 37.4362 20.6865 37.4362 21.3984V27.4287H39.4206V21.3984C39.4206 19.6084 38.1706 18.3564 36.3786 18.3564Z" fill="black"/>
<path d="M90.1336 27.4287H92.1014V18.3584L90.1326 18.3564L90.1336 27.4287ZM92.1014 15.1162H90.1336L90.1326 17.2031H92.1014V15.1162Z" fill="black"/>
<path d="M87.0555 20.3428L87.0584 18.3584L84.3602 18.3564V15.1162H82.3787L82.3758 18.3584L80.6414 18.3564V20.3428H82.3787L82.3758 24.3877C82.3758 26.206 83.5994 27.4287 85.4197 27.4287H87.0233V25.46L85.4197 25.4609C84.7069 25.4609 84.3602 25.1006 84.3602 24.3877V20.3428H87.0555Z" fill="black"/>
<path d="M56.3503 25.4609C55.6394 25.4609 55.2946 25.1006 55.2946 24.3877V15.124H53.3239L53.322 24.3877C53.322 26.206 54.53 27.4287 56.3503 27.4287H57.9792V25.46L56.3503 25.4609Z" fill="black"/>
<path d="M15.9704 18.3643C14.1511 18.3643 12.9275 19.589 12.9275 21.4054V27.4288H14.9128V21.4054C14.9128 20.6944 15.2595 20.3487 15.9704 20.3487H18.3557V18.3663L15.9704 18.3643Z" fill="black"/>
<path d="M66.1483 18.3652L65.2635 21.5068L64.3182 24.9131C64.158 25.458 64.1463 25.5029 63.7528 25.5029C63.366 25.5029 63.3475 25.4687 63.2205 25.0205L61.3651 18.3652H59.2947L61.2908 25.4678C61.7186 26.958 62.3631 27.4873 63.7528 27.4873C65.1424 27.4873 65.7899 26.9482 66.2186 25.4287L68.203 18.3652L66.1483 18.3652Z" fill="black"/>
<path d="M45.3073 20.2295H47.4558C48.2331 20.2295 48.6277 20.624 48.6277 21.3984V22.0049H44.1384V21.3984C44.1384 20.6435 44.5534 20.2295 45.3073 20.2295ZM47.4558 18.3564H45.3073C43.5173 18.3564 42.2673 19.6084 42.2673 21.3984V24.3877C42.2673 26.1797 43.5173 27.4287 45.3073 27.4287H50.0329V25.46L45.2175 25.4609C44.5251 25.4609 44.1599 25.0781 44.1599 24.3877V23.8672H49.113C49.781 23.8672 50.4978 23.3428 50.4978 22.4717V21.3984C50.4978 19.6084 49.2478 18.3564 47.4558 18.3564Z" fill="black"/>
<path d="M72.1229 21.585C72.1229 20.7607 72.5819 20.2295 73.2928 20.2295H75.4412C76.2166 20.2295 76.6102 20.624 76.6102 21.3984V22.0049H72.1229V21.585ZM75.4412 18.3564H73.2928C71.5008 18.3564 70.2498 19.6084 70.2498 21.3984V24.3877C70.2498 26.1797 71.5008 27.4287 73.2928 27.4287H78.0164V25.46L73.203 25.4609C72.5115 25.4609 72.1463 25.0781 72.1463 24.3877V23.8594H77.0994C77.7655 23.8594 78.4842 23.3428 78.4842 22.4717V21.3984C78.4842 19.6084 77.2322 18.3564 75.4412 18.3564Z" fill="black"/>
<path d="M100.527 25.5596H97.8523C96.8025 25.5596 96.6833 25.0469 96.6833 24.6611C96.6833 24.0146 96.8757 23.8467 97.7195 23.7627L100.803 23.4297C100.803 23.4297 101.188 23.3428 101.207 23.3389L101.209 24.8935C101.209 25.3594 100.992 25.5596 100.527 25.5596ZM100.058 18.3564H96.0759V20.3428H100.058C100.662 20.3428 101 20.624 101.06 21.1797V21.3154C101.039 21.4346 100.945 21.5234 100.555 21.581L97.5398 21.8906C95.1648 22.1475 94.8103 23.7344 94.8103 24.6611C94.8103 26.5732 96.3366 27.4287 97.8523 27.4287H100.527C102.021 27.4287 103.06 26.3857 103.06 24.8935V21.3984C103.06 19.6084 101.828 18.3564 100.058 18.3564Z" fill="black"/>
</svg>
