<svg width="59" height="43" viewBox="0 0 59 43" fill="none" xmlns="http://www.w3.org/2000/svg">
<g clip-path="url(#clip0_930_4945)">
<path d="M3.2639 18.1971V12.7733H5.59928L6.2652 11.2184L10.5104 11.1925C10.9201 11.1383 11.3334 11.1778 11.7467 11.1342C12.4354 11.0618 13.075 10.8523 13.6746 10.5127C13.6823 10.5016 13.6377 10.4568 13.6324 10.4568H10.8891L11.8657 9.67174C13.0603 9.63349 14.2632 9.66233 15.4473 9.49636V10.4145C15.4473 10.4174 15.4865 10.4568 15.4895 10.4568H19.4146C19.4035 10.3468 19.2171 9.66586 19.1473 9.66586H17.642V8.55002C17.642 8.54707 17.6027 8.50764 17.5998 8.50764H12.521V7.15168L9.87906 7.17699C9.76944 6.64849 9.80402 6.10587 9.76358 5.56972H13.4214C13.4431 3.98365 12.9061 2.38051 11.6622 1.36118C10.5497 0.450145 9.0877 0.0887901 7.66854 0.0317032C5.16902 -0.0695231 2.60327 0.111154 0.0973075 0.0317032C0.0685842 0.025818 0 0.0523016 0 0.0752541V18.1547C0 18.1577 0.0392747 18.1971 0.0422057 18.1971H3.2639ZM3.2639 2.8013H6.55595L6.36133 2.93078C5.47091 3.58639 5.4926 4.93353 5.48674 5.93696H8.30045L8.35672 8.45114H3.2639V2.8013Z" fill="black"/>
<path d="M49.1459 17.939C52.3523 19.3532 58.3344 18.3339 57.8502 13.7763C57.8156 13.4538 57.7359 13.1331 57.6257 12.8294H55.7968V12.1232H57.2318C56.7142 11.4069 55.8255 11.0156 55.0025 10.7595C53.9503 10.4323 52.8447 10.2958 51.7732 10.0468C51.1149 9.89383 50.2995 9.7155 50.0293 9.01516H52.8289C52.9368 9.01516 52.8957 8.75091 52.9121 8.64674C53.0956 7.45674 54.7493 7.28489 55.6977 7.20603L56.8384 7.17837C56.6169 6.86233 56.2874 6.60927 55.9674 6.40034L53.9884 6.38151C52.6308 5.54816 50.9812 5.20563 49.395 5.19975C48.5673 5.19681 47.7273 5.03673 46.892 4.97552C46.0367 4.91255 45.1598 4.87076 44.3045 4.86135C43.8942 4.85664 43.488 4.869 43.0794 4.89077V5.14502H41.5178C41.5149 5.14502 41.4756 5.18445 41.4756 5.18739V18.1538C41.4756 18.1567 41.5149 18.1961 41.5178 18.1961H44.641C44.6439 18.1961 44.6832 18.1567 44.6832 18.1538V6.36091H47.3562V6.91177C47.3562 6.93119 47.1933 7.18249 47.1634 7.25488C46.7443 8.25714 46.8234 9.63782 47.3516 10.5889C47.987 11.7336 49.2414 12.2126 50.4795 12.378V12.7876C50.4795 12.8188 50.548 12.8282 50.5768 12.8312C51.4262 12.9312 52.1853 12.6987 53.0616 12.9636C54.074 13.269 54.8976 13.741 54.6355 14.9546C54.3618 16.2211 52.6261 16.3229 51.5956 16.1593C50.4302 15.9745 49.8042 15.3171 49.5369 14.1865C49.5146 14.0924 49.4566 13.5927 49.3968 13.5927H46.4705C46.4107 13.5927 46.4265 13.834 46.4289 13.8893C46.5045 15.6949 47.5087 17.2163 49.1476 17.9396L49.1459 17.939Z" fill="black"/>
<path d="M11.7756 35.4008H3.29222V30.0335H10.9033C10.9062 30.0335 10.9455 29.9941 10.9455 29.9911V27.3216H3.29222V22.8299H11.3957V20.0615H0.0283203V38.1834C0.0283203 38.1863 0.067595 38.2258 0.070526 38.2258H11.7756C11.7785 38.2258 11.8178 38.1863 11.8178 38.1834V35.4432C11.8178 35.4403 11.7785 35.4008 11.7756 35.4008Z" fill="black"/>
<path d="M57.1747 36.7849C58.744 35.0805 59.2147 32.6529 58.9151 30.3906C58.404 26.531 55.2544 24.1893 51.4008 24.9567C47.1093 25.8113 45.7329 30.7955 47.0729 34.5397C47.3695 35.3695 47.8174 36.0981 48.396 36.7567H46.975C46.9721 36.7567 46.9328 36.7961 46.9328 36.799V38.4375C46.9328 38.4687 47.0014 38.4781 47.0301 38.481C47.7652 38.5676 48.6808 38.3998 49.4235 38.3386C50.8579 38.2203 52.2894 38.1009 53.7297 38.1115C54.8329 38.1191 55.762 37.8437 56.8031 37.4988C57.2292 37.3575 58.1109 37.078 58.4614 36.8485C58.4884 36.8308 58.5118 36.852 58.4978 36.7849H57.1753H57.1747ZM55.4378 33.9253C54.9789 35.439 53.8206 36.1711 52.2443 35.9298C49.879 35.5673 49.6662 32.5416 49.8591 30.6413C50.0701 28.5591 51.2665 26.9018 53.5732 27.4768C54.7854 27.7793 55.4162 28.8993 55.6272 30.0616H56.8089V31.0645C56.8089 31.0674 56.8482 31.1068 56.8512 31.1068H57.5687V31.8131H55.2333V33.3385C55.6606 33.4415 55.5387 33.5916 55.4378 33.9253Z" fill="black"/>
<path d="M21.1672 31.6575L25.6328 25.1461H22.1157L19.4667 29.4494L19.401 29.4959L16.6571 25.1455H13.14L17.605 31.6569L12.8867 38.2249H16.3617L19.3624 33.8928L19.428 33.8463L22.4111 38.2249H25.872C25.8749 38.2249 25.9283 38.1837 25.9007 38.1684L21.1672 31.6569V31.6575Z" fill="black"/>
<path d="M40.2647 5.14648H36.7897L34.0323 9.43977L31.2749 5.14648H27.7718L32.2415 11.5402L27.5186 18.1976H31.0357C32.0187 16.6969 33.0188 15.2032 34.0458 13.7342L37.043 18.1976H40.546L35.8196 11.5449L40.2647 5.14648Z" fill="black"/>
<path d="M30.6123 26.063L30.2189 26.5579V25.1455H27.1379C27.135 25.1455 27.0957 25.1849 27.0957 25.1878V30.0185C27.0957 30.0214 27.135 30.0608 27.1379 30.0608H28.7839V33.3095H30.2752C29.9276 31.3085 30.0507 27.8933 32.5772 27.4425C33.001 27.3671 33.4013 27.3666 33.8252 27.4425C35.6799 27.7732 36.1934 29.8136 36.2115 31.445H34.6921V32.2078H36.1834C36.1318 33.5043 35.7092 35.1292 34.4295 35.7154C34.2079 35.8166 33.9746 35.849 33.7636 35.9508V38.465C33.7636 38.4962 33.8322 38.5056 33.8603 38.5085C34.1892 38.548 34.9495 38.4132 35.2889 38.3296C39.8963 37.1943 40.5282 30.1126 38.0639 26.831C36.3751 24.5822 32.6739 24.0373 30.6117 26.063H30.6123Z" fill="black"/>
<path d="M18.5701 12.7314C18.5701 12.7343 18.5308 12.7738 18.5279 12.7738H17.1914L19.1012 18.014L17.2195 23.0565H20.4272L26.9268 5.14648H23.677L23.633 5.21534L22.7344 7.98553V9.60986H22.2279L20.708 14.4687L19.6815 11.3613H18.5701V12.7314Z" fill="black"/>
<path d="M41.4736 20.1039V38.1834C41.4736 38.1863 41.5129 38.2258 41.5158 38.2258H44.6391C44.642 38.2258 44.6813 38.1863 44.6813 38.1834V20.0615H41.5158C41.5129 20.0615 41.4736 20.101 41.4736 20.1039Z" fill="black"/>
<path d="M32.0763 35.9096C30.7955 35.9279 29.585 35.7548 28.9566 34.5077C28.8388 34.2741 28.6542 33.5914 28.5047 33.4643C28.4842 33.4466 28.3933 33.3954 28.3763 33.3954H27.0679V31.8135H25.3516V36.7853H27.0398V43.0002H30.2474V38.4803C31.588 38.4238 32.9304 37.9218 33.6801 36.7571H32.0763V35.9096Z" fill="black"/>
<path d="M41.5158 3.50786H44.6391C44.642 3.50786 44.6813 3.46842 44.6813 3.46548V0.0755769C44.6813 0.0726343 44.642 0.0332031 44.6391 0.0332031H41.5158C41.5065 0.0473277 41.4736 0.0679261 41.4736 0.0755769V3.46548C41.4736 3.46842 41.5129 3.50786 41.5158 3.50786Z" fill="black"/>
</g>
<defs>
<clipPath id="clip0_930_4945">
<rect width="59" height="43" fill="white"/>
</clipPath>
</defs>
</svg>
