<svg width="115" height="17" viewBox="0 0 115 17" fill="none" xmlns="http://www.w3.org/2000/svg">
<g clip-path="url(#clip0_930_4964)">
<path d="M1.82981 12.4048H6.856V10.775H1.82981V8.39818H7.22658V6.79102H4.45123e-07L0 16.8416H7.31923V15.2118H1.82981V12.4048Z" fill="black"/>
<path d="M15.6813 7.56066C14.8243 6.83629 13.6199 6.79102 12.3459 6.79102H8.91797V16.8416H10.7478V12.9934H12.3228C13.5967 12.9934 14.8011 12.9255 15.6581 12.2237C16.3067 11.6805 16.6773 10.8203 16.6773 9.86957C16.7004 8.91887 16.3067 8.0813 15.6813 7.56066ZM14.0599 11.1372C13.7588 11.273 13.3419 11.341 12.6007 11.341H10.7478V8.37559H12.6007C13.3419 8.37559 13.7588 8.44351 14.0599 8.57927C14.5232 8.78303 14.8011 9.28105 14.8011 9.86957C14.8011 10.4581 14.5232 10.9335 14.0599 11.1372Z" fill="black"/>
<path d="M17.9043 16.8416H19.7341V12.4728H24.2275V10.8656H19.7341V8.39818H24.5749V6.79102H17.9043V16.8416Z" fill="black"/>
<path d="M27.8181 6.79102H25.9883V16.8416H33.3307V15.2118H27.8181V6.79102Z" fill="black"/>
<path d="M47.3669 12.4046H52.393V10.7748H47.3669V8.39794H52.7637V6.79077H46.3014V5.72686C46.3014 5.38731 46.0235 5.09303 45.6529 5.09303C45.6529 5.09303 42.109 5.09303 41.1362 5.09303C41.1362 4.11966 41.1362 0.656283 41.1362 0.656283C41.1362 0.316735 40.8583 0.0224609 40.4877 0.0224609H37.5693C37.2219 0.0224609 36.9208 0.294099 36.9208 0.656283C36.9208 0.656283 36.9208 4.1423 36.9208 5.09303C35.9248 5.09303 32.3809 5.09303 32.3809 5.09303C32.0335 5.09303 31.7324 5.38731 31.7324 5.72686V8.51111C31.7324 8.8507 32.0335 9.14497 32.3809 9.14497C32.3809 9.14497 35.9479 9.14497 36.9208 9.14497C36.9208 10.1183 36.9208 13.5817 36.9208 13.5817C36.9208 13.9212 37.2219 14.2155 37.5693 14.2155H40.4877C40.8351 14.2155 41.1362 13.9212 41.1362 13.5817C41.1362 13.5817 41.1362 10.0957 41.1362 9.14497H45.5371V16.8188H52.8563V15.1889H47.3669V12.4046Z" fill="black"/>
<path d="M58.7621 8.17147C60.0592 8.17147 60.9856 8.85058 61.2405 10.2087L63.1397 9.91445C62.7229 7.89982 61.1014 6.58691 58.7621 6.58691C55.9363 6.58691 53.9443 8.51098 53.9443 11.7254C53.9443 15.0303 55.8205 16.9997 58.6926 16.9997C61.4258 16.9997 62.7692 15.302 63.1166 13.5363L61.2172 13.3099C60.9625 14.6681 60.0129 15.3925 58.7389 15.3925C56.9555 15.3925 55.8437 14.0569 55.8437 11.7254C55.8668 9.50702 57.0018 8.17147 58.7621 8.17147Z" fill="black"/>
<path d="M67.24 6.79102L63.2793 16.8416H65.1323L66.0588 14.3742H70.228L71.1545 16.8416H73.1232L69.1625 6.79102H67.24ZM66.6379 12.8576L67.7727 9.82431C67.958 9.34896 68.1897 8.64718 68.1897 8.64718H68.2129C68.2129 8.64718 68.4445 9.41688 68.6066 9.82431L69.7184 12.8576H66.6379Z" fill="black"/>
<path d="M75.9715 6.79102H74.1416V16.8416H81.4607V15.2118H75.9715V6.79102Z" fill="black"/>
<path d="M113.772 6.33822C114.421 5.63649 114.745 4.86684 114.745 3.82557C114.745 2.46738 114.027 1.10919 112.684 0.45273C111.757 0 111.062 0 109.673 0H105.04C104.113 0 103.65 0.679094 103.65 1.35819V10.4127L99.8052 1.15446C99.5278 0.498003 99.3187 0 98.4389 0H96.3777C95.5205 0 95.2422 0.498002 94.9873 1.15446L91.374 10.1864C91.374 9.50729 91.0499 8.82826 89.7761 8.82826H86.5103V1.51664C86.5103 0.701731 86.0004 0 84.9356 0H83.2211C82.1555 0 81.6465 0.701731 81.6465 1.51664V11.8389C81.6465 12.6538 82.1555 13.3555 83.2211 13.3555H89.9844C90.865 13.3555 91.0733 12.9481 91.1424 12.6991C91.2124 12.9481 91.4207 13.3555 92.3005 13.3555H94.0608C94.779 13.3555 95.1964 13.2424 95.5438 12.4727L96.2611 10.8655H98.5547L99.2728 12.4727C99.6203 13.2424 100.037 13.3555 100.755 13.3555H102.724C103.604 13.3555 103.813 12.9481 103.882 12.6991C103.952 12.9481 104.16 13.3555 105.04 13.3555H109.673C111.062 13.3555 111.989 13.1292 112.915 12.6764C114.212 12.0426 115 10.6165 115 9.16778C115 7.99068 114.606 7.1305 113.772 6.33822Z" fill="black"/>
</g>
<defs>
<clipPath id="clip0_930_4964">
<rect width="115" height="17" fill="white"/>
</clipPath>
</defs>
</svg>
