<svg width="37" height="124" viewBox="0 0 37 124" fill="none" xmlns="http://www.w3.org/2000/svg">
<g clip-path="url(#clip0_930_4845)">
<path fill-rule="evenodd" clip-rule="evenodd" d="M11.1 77.0127C11.1 78.4855 10.36 79.5545 9.08812 79.9821C8.57937 80.1483 7.93187 80.2196 7.09937 80.2196C6.26687 80.2196 5.59625 80.1483 5.11062 79.9821C3.83875 79.5545 3.09875 78.4855 3.09875 77.0127C3.09875 75.5399 3.58437 74.9223 4.39375 74.4472C4.48625 74.3997 4.57875 74.3759 4.69437 74.3759C4.94875 74.3759 5.15687 74.5897 5.15687 74.851C5.15687 75.1123 5.06437 75.2073 4.87937 75.3261C4.3475 75.7299 4.09312 76.2526 4.09312 77.0127C4.09312 77.7729 4.55562 78.6755 5.43437 78.9606C5.87375 79.1031 6.35938 79.1744 7.09937 79.1744C7.83938 79.1744 8.325 79.1269 8.76437 78.9606C9.64312 78.6755 10.1056 78.0104 10.1056 77.0127C10.1056 76.015 9.85125 75.7299 9.31937 75.3261C9.13437 75.2073 9.04187 75.0411 9.04187 74.851C9.04187 74.661 9.25 74.3759 9.50437 74.3759C9.75875 74.3759 9.7125 74.3997 9.805 74.4472C10.6144 74.9223 11.1 75.8962 11.1 77.0127ZM7.42312 70.4564C7.42312 71.9292 7.83937 72.5468 8.81062 72.5468C9.78187 72.5468 10.1519 71.5491 10.1519 70.7177C10.1519 69.4112 9.55062 68.5798 8.57937 68.5798H7.46937V70.4326L7.42312 70.4564ZM11.1 70.884C11.1 72.5468 10.1981 73.6158 8.7875 73.6158C7.37687 73.6158 6.45187 72.5468 6.45187 70.5989V68.6273H5.92C4.60187 68.6273 4.07 69.1736 4.07 70.5276C4.07 71.8817 4.30125 71.8579 4.5325 72.238C4.60187 72.333 4.64812 72.4755 4.64812 72.5943C4.64812 72.8794 4.44 73.0932 4.1625 73.0932C3.885 73.0932 3.86188 73.0219 3.74625 72.8794C3.33 72.333 3.09875 71.4303 3.09875 70.4801C3.09875 68.5085 3.9775 67.5821 5.87375 67.5821H8.90312C9.31937 67.5821 9.45812 67.5345 9.66625 67.4395L10.2212 67.1307C10.2906 67.0832 10.4062 67.0594 10.4987 67.0594C10.7994 67.0594 10.9844 67.2732 10.9844 67.6058C10.9844 67.9384 10.8919 67.9859 10.6837 68.1047L10.175 68.4372C10.8225 69.0549 11.1 69.815 11.1 70.9077V70.884ZM11.0075 60.1468C11.0075 60.4794 10.7994 60.6694 10.4756 60.6694H6.26687C4.81 60.6694 4.09312 61.3108 4.09312 62.5936C4.09312 63.8763 4.92562 64.6127 6.105 64.6127H10.4756C10.8225 64.6127 11.0075 64.8265 11.0075 65.1353C11.0075 65.4441 10.7994 65.6579 10.4756 65.6579H3.74625C3.39937 65.6579 3.19125 65.4441 3.19125 65.1353C3.19125 64.8265 3.39937 64.6127 3.74625 64.6127H4.02375C3.4225 64.1376 3.12187 63.3775 3.12187 62.4035C3.12187 60.6457 4.23187 59.6004 6.08187 59.6004H10.4987C10.8456 59.6004 11.0306 59.8142 11.0306 60.1231L11.0075 60.1468ZM11.0075 55.2296V55.4434C11.0075 56.9162 10.4294 57.51 8.90312 57.51H4.20875V58.1514C4.20875 58.4602 4.02375 58.6503 3.74625 58.6503C3.46875 58.6503 3.28375 58.4602 3.28375 58.1514V57.51H1.34125C0.994375 57.51 0.78625 57.2962 0.78625 56.9874C0.78625 56.6786 0.994375 56.4648 1.34125 56.4648H3.26062V55.2296C3.26062 54.9208 3.44562 54.7307 3.72312 54.7307C4.00062 54.7307 4.18563 54.9208 4.18563 55.2296V56.4648H8.85687C9.75875 56.4648 9.99 56.2273 9.99 55.2533C9.99 54.2794 10.1981 54.707 10.4987 54.707C10.7994 54.707 10.9844 54.9208 10.9844 55.2533L11.0075 55.2296ZM4.09312 50.7874C4.09312 51.7376 4.57875 52.4503 5.43437 52.7353C5.87375 52.8778 6.33625 52.9491 7.09937 52.9491C7.8625 52.9491 8.34812 52.9016 8.76437 52.7353C9.62 52.4503 10.1056 51.7376 10.1056 50.7874C10.1056 49.8372 9.62 49.1008 8.76437 48.8158C8.325 48.6732 7.8625 48.602 7.09937 48.602C6.33625 48.602 5.87375 48.6495 5.43437 48.8158C4.57875 49.1008 4.09312 49.8135 4.09312 50.7874ZM11.1 50.7874C11.1 52.2365 10.36 53.3292 9.08812 53.7568C8.51 53.9468 7.93187 54.0181 7.09937 54.0181C6.26687 54.0181 5.71187 53.9468 5.11062 53.7568C3.83875 53.3292 3.09875 52.2365 3.09875 50.7874C3.09875 49.3384 3.83875 48.2457 5.11062 47.7943C5.68875 47.6043 6.26687 47.533 7.09937 47.533C7.93187 47.533 8.51 47.6043 9.08812 47.7943C10.36 48.2219 11.1 49.3146 11.1 50.7874ZM11.0075 40.5491C11.0075 40.8817 10.7994 41.0717 10.4756 41.0717H6.26687C4.81 41.0717 4.09312 41.7131 4.09312 42.9958C4.09312 44.2786 4.92562 45.015 6.105 45.015H10.4756C10.8225 45.015 11.0075 45.2288 11.0075 45.5376C11.0075 45.8464 10.7994 46.0602 10.4756 46.0602H3.74625C3.39937 46.0602 3.19125 45.8464 3.19125 45.5376C3.19125 45.2288 3.39937 45.015 3.74625 45.015H4.02375C3.4225 44.5399 3.12187 43.7798 3.12187 42.8058C3.12187 41.048 4.23187 40.0027 6.08187 40.0027H10.4987C10.8456 40.0027 11.0306 40.2165 11.0306 40.5254L11.0075 40.5491ZM4.09312 32.615C4.09312 33.5414 4.55562 34.2303 5.38812 34.5154C5.8275 34.6579 6.31312 34.7292 7.09937 34.7292C7.88562 34.7292 8.37125 34.6817 8.81062 34.5154C9.64312 34.2303 10.1056 33.5652 10.1056 32.615C10.1056 31.6648 9.66625 30.9997 8.85687 30.7146C8.46375 30.5958 7.8625 30.5246 7.09937 30.5246C6.33625 30.5246 5.735 30.5958 5.34187 30.7146C4.5325 30.9997 4.09312 31.6648 4.09312 32.615ZM11.1 32.7575C11.1 34.1116 10.4294 35.0617 9.18062 35.4893C8.53312 35.6794 7.955 35.7744 7.09937 35.7744C6.24375 35.7744 5.6425 35.7031 5.01813 35.4893C3.76937 35.0617 3.09875 34.0878 3.09875 32.7575C3.09875 31.4273 3.39937 30.9759 4.02375 30.5246H0.555C0.208125 30.5246 0 30.3108 0 30.002C0 29.6932 0.208125 29.4794 0.555 29.4794H10.4756C10.8225 29.4794 11.0075 29.6694 11.0075 30.002C11.0075 30.3345 10.7994 30.5246 10.4756 30.5246H10.1981C10.8225 30.9759 11.1231 31.7123 11.1231 32.7575H11.1ZM4.07 24.7997C4.07 25.7736 4.55562 26.4863 5.43437 26.7713C5.735 26.8663 6.05875 26.9139 6.475 26.9139V22.6855C6.05875 22.6855 5.735 22.733 5.43437 22.828C4.55562 23.1131 4.07 23.8257 4.07 24.8234V24.7997ZM11.1 24.7047C11.1 26.2487 10.4062 27.2939 9.065 27.7453C8.55625 27.9116 7.97812 27.9828 7.07625 27.9828C6.17437 27.9828 5.6425 27.9116 5.0875 27.7453C3.81562 27.3177 3.07562 26.2487 3.07562 24.8234C3.07562 23.3981 3.81562 22.3054 5.0875 21.8778C5.57312 21.7116 6.15125 21.6403 6.91437 21.6403C7.6775 21.6403 7.4 21.8541 7.4 22.1391V26.9376C8.0475 26.9376 8.325 26.9139 8.695 26.7951C9.62 26.4863 10.1056 25.7499 10.1056 24.7047C10.1056 23.6595 9.85125 23.2556 9.27312 22.6855C9.1575 22.5667 9.08812 22.4242 9.08812 22.3054C9.08812 22.0204 9.27312 21.8303 9.5275 21.8303C9.78187 21.8303 9.78187 21.8778 9.87437 21.9491C10.6606 22.5905 11.1 23.5882 11.1 24.7759V24.7047ZM35.1962 72.5706L16.6038 79.9108C16.3263 80.0058 16.1412 80.0533 15.9331 80.0533C15.355 80.0533 14.7537 79.6257 14.7537 78.7943C14.7537 77.9629 15.17 77.7729 15.6556 77.5828L32.6525 70.884V70.8365L15.6556 64.2801C15.1469 64.0901 14.7537 63.7338 14.7537 63.0686C14.7537 62.4035 15.3319 61.8096 15.9331 61.8096C16.5344 61.8096 16.3494 61.8571 16.6038 61.9522L35.1962 69.2924C36.3294 69.72 36.6994 70.1238 36.6994 70.9077C36.6994 71.6916 36.3294 72.1192 35.1962 72.523V72.5706ZM29.8775 46.3453H26.6631C26.4781 46.3453 26.3856 46.4403 26.3856 46.6303V51.9277C26.3856 56.346 27.7037 58.1989 30.5944 58.1989C33.485 58.1989 34.6644 56.2985 34.6644 52.7116C34.6644 49.1246 32.8606 46.3453 29.8775 46.3453ZM35.52 42.402C36.1906 42.402 36.6994 42.9246 36.6994 43.7085C36.6994 44.4924 36.4681 44.5874 35.9362 44.92L34.225 45.989V46.084C35.9825 47.6993 36.9769 49.6709 36.9769 53.1391C36.9769 56.6073 34.7106 60.7169 30.5944 60.7169C26.4781 60.7169 24.1656 57.6526 24.1656 52.3077V46.6303C24.1656 46.4403 24.0731 46.3453 23.8881 46.3453H22.3387C18.7775 46.3453 16.7656 47.7468 16.7656 52.0939C16.7656 56.4411 17.39 55.8947 18.13 57.1537C18.315 57.4388 18.4075 57.7476 18.4075 58.0326C18.4075 58.7215 17.945 59.1966 17.2744 59.1966C16.6037 59.1966 16.5575 59.0066 16.28 58.6978C15.2856 57.3437 14.4762 54.992 14.4762 51.9514C14.4762 46.464 16.8813 43.9223 22.1537 43.9223H30.8719C32.0975 43.9223 32.5369 43.7798 33.1844 43.4472L34.8031 42.5683C34.9881 42.4732 35.2656 42.3782 35.4737 42.3782L35.52 42.402ZM35.3812 24.1821H33.8781V24.2296C35.8206 25.4886 36.9538 27.579 36.9538 30.6909C36.9538 35.5606 33.9706 38.3637 28.7212 38.3637H16.0487C15.1931 38.3637 14.7306 37.8648 14.7306 37.1047C14.7306 36.3445 15.1931 35.8457 16.0487 35.8457H28.12C32.4212 35.8457 34.595 33.9928 34.595 30.1208C34.595 26.2487 32.2825 24.1821 28.5825 24.1821H16.0487C15.1931 24.1821 14.7306 23.6595 14.7306 22.9231C14.7306 22.1867 15.1931 21.664 16.0487 21.664H35.3581C36.2137 21.664 36.6763 22.1867 36.6763 22.9231C36.6763 23.6595 36.2137 24.1821 35.3581 24.1821H35.3812ZM30.8719 3.11156C29.6925 2.73148 27.8887 2.5652 25.715 2.5652C23.5412 2.5652 21.7837 2.75524 20.6044 3.11156C18.0837 3.99049 16.8581 6.0334 16.8581 8.83646C16.8581 11.6395 18.315 13.6587 20.7431 14.5139C22.1537 14.989 23.5875 15.1077 25.715 15.1077C27.8425 15.1077 29.3225 14.9652 30.7331 14.5139C33.1844 13.6824 34.6181 11.687 34.6181 8.83646C34.6181 5.98589 33.3925 4.01424 30.8719 3.11156ZM35.3812 2.54145H33.8087V2.58895C35.6587 3.65792 36.9769 5.60581 36.9769 9.2403C36.9769 12.8748 35.0344 15.7016 31.635 16.8656C29.8775 17.4119 28.1894 17.6495 25.715 17.6495C23.2406 17.6495 21.5987 17.4119 19.8412 16.8656C16.4419 15.7016 14.4994 13.0173 14.4994 9.2403C14.4994 5.46328 15.8175 3.65792 17.6675 2.58895V2.54145H6.89125C6.03562 2.54145 5.57312 2.04259 5.57312 1.28244C5.57312 0.546043 6.03562 0.0234375 6.89125 0.0234375H35.3812C36.2369 0.0234375 36.6994 0.546043 36.6994 1.28244C36.6994 2.01884 36.2369 2.54145 35.3812 2.54145ZM26.1081 95.3514C26.1081 95.2326 26.1775 95.1376 26.3162 95.1376H28.0969C28.2356 95.1376 28.3281 95.2326 28.3281 95.3514C28.3281 95.4702 28.2356 95.5652 28.0969 95.5652H26.5937C26.5937 95.5652 26.5706 95.5652 26.5706 95.589V96.6342C26.5706 96.6342 26.5706 96.6579 26.5937 96.6579H27.8425C27.9812 96.6579 28.0737 96.7529 28.0737 96.8717C28.0737 96.9905 27.9812 97.0855 27.8425 97.0855H26.5937C26.5937 97.0855 26.5706 97.0855 26.5706 97.1093V98.202C26.5706 98.202 26.5706 98.2257 26.5937 98.2257H28.0969C28.2356 98.2257 28.3281 98.3208 28.3281 98.4395C28.3281 98.5583 28.2356 98.6533 28.0969 98.6533H26.3162C26.1775 98.6533 26.1081 98.5583 26.1081 98.4395V95.3039V95.3514ZM24.4894 95.3752C24.4894 95.2089 24.5819 95.1139 24.7206 95.1139C24.8594 95.1139 24.9519 95.2089 24.9519 95.3752V98.487C24.9519 98.6533 24.8594 98.7483 24.7206 98.7483C24.5819 98.7483 24.4894 98.6533 24.4894 98.487V95.3752ZM22.9862 96.1591C22.9862 95.779 22.755 95.5652 22.3387 95.5652H21.5294C21.5294 95.5652 21.5062 95.5652 21.5062 95.589V96.7054C21.5062 96.7054 21.5062 96.7292 21.5294 96.7292H22.3387C22.7319 96.7292 22.9862 96.5154 22.9862 96.1353V96.1591ZM21.0437 98.4633V95.3514C21.0437 95.2326 21.1131 95.1376 21.2519 95.1376H22.3387C23.0094 95.1376 23.4256 95.5414 23.4256 96.1591C23.4256 96.7767 23.1712 96.9905 22.7781 97.1093L23.4025 98.3683C23.4025 98.4158 23.4256 98.4395 23.4256 98.487C23.4256 98.6058 23.3331 98.7008 23.2175 98.7008C23.1019 98.7008 23.0556 98.6533 23.0094 98.5583L22.3387 97.1805H21.5756C21.5756 97.1805 21.5525 97.1805 21.5525 97.2043V98.4633C21.5525 98.6296 21.46 98.7246 21.3212 98.7246C21.1825 98.7246 21.09 98.6296 21.09 98.4633H21.0437ZM20.0031 95.1376C20.1419 95.1376 20.2344 95.2326 20.2344 95.3514C20.2344 95.4702 20.1419 95.5652 20.0031 95.5652H19.1937C19.1937 95.5652 19.1706 95.5652 19.1706 95.589V98.4633C19.1706 98.6296 19.0781 98.7246 18.9394 98.7246C18.8006 98.7246 18.7081 98.6296 18.7081 98.4633V95.589C18.7081 95.589 18.7081 95.5652 18.685 95.5652H17.8756C17.7369 95.5652 17.6444 95.4702 17.6444 95.3514C17.6444 95.2326 17.7369 95.1376 17.8756 95.1376H19.98H20.0031ZM16.6962 97.4418L16.1413 95.8265L15.5862 97.4418H16.7194H16.6962ZM14.7769 98.392L15.8406 95.3752C15.8869 95.2089 15.9794 95.1139 16.1413 95.1139C16.3031 95.1139 16.3956 95.2089 16.4419 95.3752L17.4825 98.392C17.4825 98.4158 17.4825 98.4633 17.4825 98.487C17.4825 98.6058 17.39 98.7008 17.2744 98.7008C17.1587 98.7008 17.0894 98.6533 17.0662 98.5345L16.835 97.8457H15.4244L15.1931 98.5345C15.1469 98.6533 15.0775 98.7008 14.985 98.7008C14.8925 98.7008 14.7769 98.6058 14.7769 98.487C14.7769 98.3683 14.7769 98.4158 14.7769 98.392ZM13.9675 96.2066C13.9675 95.8265 13.7131 95.589 13.2969 95.589H12.5337C12.5337 95.589 12.5106 95.589 12.5106 95.6127V96.8004C12.5106 96.8004 12.5106 96.8242 12.5337 96.8242H13.2969C13.7131 96.8242 13.9675 96.5867 13.9675 96.2066ZM12.025 95.3514C12.025 95.2326 12.0944 95.1376 12.2331 95.1376H13.2969C13.9906 95.1376 14.4069 95.5652 14.4069 96.2066C14.4069 96.848 13.9906 97.2755 13.2969 97.2755H12.5106C12.5106 97.2755 12.4875 97.2755 12.4875 97.2993V98.487C12.4875 98.6533 12.395 98.7483 12.2562 98.7483C12.1175 98.7483 12.025 98.6533 12.025 98.487V95.3752V95.3514ZM21.9456 91.8119C22.0381 91.8119 22.1075 91.8832 22.1075 91.9782C22.1075 92.0732 22.0381 92.1445 21.9456 92.1445H21.3906V93.9499C21.3906 94.0686 21.3212 94.1399 21.2288 94.1399C21.1362 94.1399 21.0669 94.0686 21.0669 93.9499V92.1445H20.5119C20.4194 92.1445 20.35 92.0732 20.35 91.9782C20.35 91.8832 20.4194 91.8119 20.5119 91.8119H21.9687H21.9456ZM18.2687 91.9545C18.2687 91.8595 18.315 91.8119 18.4075 91.8119H19.6562C19.7487 91.8119 19.8181 91.8832 19.8181 91.9782C19.8181 92.0732 19.7487 92.1445 19.6562 92.1445H18.6387V92.7621H19.4944C19.5869 92.7621 19.6562 92.8334 19.6562 92.9284C19.6562 93.0234 19.5869 93.0947 19.4944 93.0947H18.6387V93.7361H19.6562C19.7487 93.7361 19.8181 93.8073 19.8181 93.9024C19.8181 93.9974 19.7487 94.0686 19.6562 94.0686H18.4075C18.315 94.0686 18.2687 94.0211 18.2687 93.9261V91.907V91.9545ZM29.1837 86.1583C29.23 86.1108 29.2531 86.087 29.3225 86.087C29.415 86.087 29.4844 86.1583 29.4844 86.2533C29.4844 86.3008 29.4844 86.3483 29.4381 86.3959L29.0912 86.7997C29.045 86.8472 28.9987 86.8709 28.9294 86.8709C28.8369 86.8709 28.7675 86.7997 28.7675 86.7047C28.7675 86.6572 28.7675 86.6096 28.8137 86.5621L29.1606 86.1583H29.1837ZM27.8887 87.4648C27.8887 87.346 27.9581 87.251 28.0969 87.251H29.8775C30.0162 87.251 30.1087 87.346 30.1087 87.4648C30.1087 87.5836 30.0162 87.6786 29.8775 87.6786H28.3744C28.3744 87.6786 28.3512 87.6786 28.3512 87.7024V88.7476C28.3512 88.7476 28.3512 88.7713 28.3744 88.7713H29.6231C29.7619 88.7713 29.8544 88.8663 29.8544 88.9851C29.8544 89.1039 29.7619 89.1989 29.6231 89.1989H28.3744C28.3744 89.1989 28.3512 89.1989 28.3512 89.2227V90.3154C28.3512 90.3154 28.3512 90.3391 28.3744 90.3391H29.8775C30.0162 90.3391 30.1087 90.4342 30.1087 90.5529C30.1087 90.6717 30.0162 90.7667 29.8775 90.7667H28.0969C27.9581 90.7667 27.8887 90.6717 27.8887 90.5529V87.4173V87.4648ZM26.8481 87.251C26.9869 87.251 27.0794 87.346 27.0794 87.4648C27.0794 87.5836 26.9869 87.6786 26.8481 87.6786H26.0387C26.0387 87.6786 26.0156 87.6786 26.0156 87.7024V90.5767C26.0156 90.743 25.9231 90.838 25.7844 90.838C25.6456 90.838 25.5531 90.743 25.5531 90.5767V87.7024C25.5531 87.7024 25.5531 87.6786 25.53 87.6786H24.7206C24.5819 87.6786 24.4894 87.5836 24.4894 87.4648C24.4894 87.346 24.5819 87.251 24.7206 87.251H26.825H26.8481ZM23.3794 88.2725C23.3794 87.8924 23.1481 87.6786 22.7319 87.6786H21.9225C21.9225 87.6786 21.8994 87.6786 21.8994 87.7024V88.8188C21.8994 88.8188 21.8994 88.8426 21.9225 88.8426H22.7319C23.125 88.8426 23.3794 88.6288 23.3794 88.2487V88.2725ZM21.4369 90.5767V87.4648C21.4369 87.346 21.5062 87.251 21.645 87.251H22.7319C23.4025 87.251 23.8187 87.6549 23.8187 88.2725C23.8187 88.8901 23.5644 89.1039 23.1712 89.2227L23.7956 90.4817C23.7956 90.5292 23.8187 90.5529 23.8187 90.6004C23.8187 90.7192 23.7494 90.8142 23.6106 90.8142C23.4719 90.8142 23.4487 90.7667 23.4025 90.6717L22.7319 89.2939H21.9687C21.9687 89.2939 21.9456 89.2939 21.9456 89.3177V90.5767C21.9456 90.743 21.8531 90.838 21.7144 90.838C21.5756 90.838 21.4831 90.743 21.4831 90.5767H21.4369ZM18.2687 87.4648C18.2687 87.346 18.3381 87.251 18.4769 87.251H20.2575C20.3962 87.251 20.4887 87.346 20.4887 87.4648C20.4887 87.5836 20.3962 87.6786 20.2575 87.6786H18.7544C18.7544 87.6786 18.7312 87.6786 18.7312 87.7024V88.7476C18.7312 88.7476 18.7312 88.7713 18.7544 88.7713H20.0031C20.1419 88.7713 20.2344 88.8663 20.2344 88.9851C20.2344 89.1039 20.1419 89.1989 20.0031 89.1989H18.7544C18.7544 89.1989 18.7312 89.1989 18.7312 89.2227V90.3154C18.7312 90.3154 18.7312 90.3391 18.7544 90.3391H20.2575C20.3962 90.3391 20.4887 90.4342 20.4887 90.5529C20.4887 90.6717 20.3962 90.7667 20.2575 90.7667H18.4769C18.3381 90.7667 18.2687 90.6717 18.2687 90.5529V87.4173V87.4648ZM15.3781 90.3867H16.1875C16.6037 90.3867 16.835 90.1491 16.835 89.7928C16.835 89.4365 16.6037 89.1989 16.1875 89.1989H15.3781C15.3781 89.1989 15.355 89.1989 15.355 89.2227V90.3391C15.355 90.3391 15.355 90.3629 15.3781 90.3629V90.3867ZM16.1644 88.7951C16.5575 88.7951 16.7656 88.5813 16.7656 88.2487C16.7656 87.9162 16.5344 87.6786 16.1644 87.6786H15.3781C15.3781 87.6786 15.355 87.6786 15.355 87.7024V88.7476C15.355 88.7476 15.355 88.7713 15.3781 88.7713H16.1644V88.7951ZM14.8925 87.4648C14.8925 87.346 14.9619 87.251 15.1006 87.251H16.1644C16.8581 87.251 17.205 87.6073 17.205 88.1775C17.205 88.7476 17.02 88.8426 16.7425 88.9614C16.9969 89.0326 17.2744 89.3177 17.2744 89.7928C17.2744 90.4579 16.8581 90.8142 16.1644 90.8142H15.1006C14.9619 90.8142 14.8925 90.743 14.8925 90.6004V87.4648ZM13.2737 87.4648C13.2737 87.2985 13.3663 87.2035 13.505 87.2035C13.6437 87.2035 13.7362 87.2985 13.7362 87.4648V90.5767C13.7362 90.743 13.6437 90.838 13.505 90.838C13.3663 90.838 13.2737 90.743 13.2737 90.5767V87.4648ZM10.2444 87.4648C10.2444 87.2985 10.3369 87.2035 10.4756 87.2035C10.6144 87.2035 10.7069 87.2985 10.7069 87.4648V90.3391C10.7069 90.3391 10.7069 90.3629 10.73 90.3629H12.2331C12.3719 90.3629 12.4644 90.4579 12.4644 90.5767C12.4644 90.6955 12.3719 90.7905 12.2331 90.7905H10.4756C10.3369 90.7905 10.2675 90.6955 10.2675 90.5529V87.4648H10.2444Z" fill="black"/>
<path fill-rule="evenodd" clip-rule="evenodd" d="M35.7741 88.2257C35.7048 91.3138 35.5198 94.1644 35.2191 96.6349C35.0573 97.8939 34.826 99.1766 34.5254 100.459H5.7579C5.45727 99.2004 5.22602 97.9176 5.06415 96.6349C4.67102 93.4992 4.53227 90.3398 4.48602 88.2257C4.4629 86.7291 4.4629 85.5414 4.48602 84.9H35.8204C35.8204 85.5414 35.8204 86.7291 35.8204 88.2257H35.7741ZM33.5079 103.88L31.9123 101.623H34.2248C34.0166 102.384 33.7623 103.144 33.5079 103.88ZM13.6898 101.6L25.1366 117.777C24.7666 118.204 24.3966 118.632 24.0035 119.059L11.6548 101.6H13.6898ZM16.6035 101.6L26.7091 115.876C26.3623 116.328 25.9923 116.755 25.6223 117.207L14.5685 101.6H16.6035ZM19.4941 101.6L28.1891 113.905C27.8423 114.38 27.4954 114.855 27.1485 115.306L17.4591 101.6H19.4941ZM22.3848 101.6L29.5998 111.814C29.276 112.313 28.9523 112.812 28.6054 113.287L20.3266 101.6H22.3616H22.3848ZM25.2754 101.6L30.941 109.605C30.6404 110.128 30.3398 110.65 30.016 111.173L23.2404 101.6H25.2754ZM28.166 101.6L32.1435 107.229C31.866 107.8 31.5885 108.37 31.311 108.916L26.131 101.6H28.166ZM31.0566 101.6L33.2304 104.664C32.9991 105.282 32.7448 105.875 32.4904 106.493L29.0448 101.6H31.0798H31.0566ZM22.3616 120.817L8.76415 101.6H10.7991L23.5179 119.582C23.4254 119.677 23.3329 119.796 23.2404 119.891C22.9166 120.223 22.6391 120.532 22.3616 120.817ZM21.0666 122.171C20.9279 122.29 20.8123 122.409 20.6735 122.528L6.17415 102.027C6.1279 101.885 6.08165 101.742 6.05852 101.6H7.90852L21.876 121.34C21.5754 121.649 21.321 121.934 21.0666 122.171ZM17.6904 120.58C17.4823 120.366 17.2741 120.128 17.066 119.891C13.5973 116.185 10.961 112.622 9.01852 108.964C8.20915 107.443 7.5154 105.875 6.91415 104.284L20.0029 122.813C19.841 122.741 19.5866 122.551 19.1935 122.171C18.7773 121.767 18.2685 121.221 17.6673 120.58H17.6904ZM36.8841 84.3061C36.8841 83.9973 36.6298 83.7598 36.3291 83.7598H3.93102C3.6304 83.7598 3.37602 83.9973 3.37602 84.3061C3.37602 84.3061 3.32977 85.9214 3.37602 88.2494C3.42227 90.3874 3.56102 93.5942 3.97727 96.7774C4.11602 98.0126 4.34727 99.2241 4.62477 100.459L4.80977 101.172C5.52665 104.046 6.61352 106.849 8.04727 109.51C10.036 113.239 12.7185 116.898 16.2566 120.675C16.4648 120.912 16.6729 121.126 16.881 121.34C17.4823 122.005 18.0141 122.551 18.4535 122.979C19.1473 123.644 19.656 123.953 20.1185 123.977H20.1648H20.211C20.6966 123.953 21.1591 123.644 21.8529 122.979C22.2229 122.623 22.6391 122.171 23.1479 121.649C23.4254 121.34 23.726 121.031 24.0729 120.675C27.611 116.874 30.2935 113.239 32.2823 109.51C33.716 106.826 34.8029 104.023 35.5429 101.172L35.7279 100.459C36.0285 99.2241 36.2366 97.9889 36.3985 96.7774C36.6991 94.2594 36.8841 91.3851 36.9535 88.2494C36.9998 85.9214 36.9535 84.3299 36.9535 84.3061H36.8841Z" fill="black"/>
</g>
<defs>
<clipPath id="clip0_930_4845">
<rect width="37" height="124" fill="white"/>
</clipPath>
</defs>
</svg>
