<svg width="159" height="33" viewBox="0 0 159 33" fill="none" xmlns="http://www.w3.org/2000/svg">
<g clip-path="url(#clip0_456_7311)">
<path d="M1.56393 2.53846H1.04262V1.52308H0V1.01538H1.04262V0H1.56393V1.01538H2.60656V1.52308H1.56393V2.53846Z" fill="black"/>
<path d="M1.56393 33.0004H1.04262V31.985H0V31.4773H1.04262V30.4619H1.56393V31.4773H2.60656V31.985H1.56393V33.0004Z" fill="black"/>
<path d="M32.8423 2.53846H32.3209V1.52308H31.2783V1.01538H32.3209V0H32.8423V1.01538H33.8849V1.52308H32.8423V2.53846Z" fill="black"/>
<path d="M32.8423 33.0004H32.3209V31.985H31.2783V31.4773H32.3209V30.4619H32.8423V31.4773H33.8849V31.985H32.8423V33.0004Z" fill="black"/>
<path d="M64.1216 2.53846H63.6002V1.52308H62.5576V1.01538H63.6002V0H64.1216V1.01538H65.1642V1.52308H64.1216V2.53846Z" fill="black"/>
<path d="M64.1216 33.0004H63.6002V31.985H62.5576V31.4773H63.6002V30.4619H64.1216V31.4773H65.1642V31.985H64.1216V33.0004Z" fill="black"/>
<path d="M6.51671 3.80762L3.91016 6.34608V26.6538L6.51671 29.1922L9.12327 26.6538V8.88454H14.3364V26.6538L16.9429 29.1922L19.5495 26.6538V8.88454H24.7626V26.6538L27.3692 29.1922L29.9757 26.6538V6.34608L27.3692 3.80762H6.51671Z" fill="black"/>
<path d="M58.6475 8.88454L61.2541 6.34608L58.6475 3.80762H37.795L35.1885 6.34608V26.6538L37.795 29.1922H58.6475L61.2541 26.6538L58.6475 24.1153H40.4016V19.0384H58.6475L61.2541 16.4999L58.6475 13.9615H40.4016V8.88454H58.6475Z" fill="black"/>
<path d="M69.0743 3.80762L66.4678 6.34608L69.0743 8.88454H76.894V26.6538L79.5006 29.1922L82.1071 26.6538V8.88454H89.9268L92.5333 6.34608L89.9268 3.80762H69.0743Z" fill="black"/>
<path d="M100.353 3.80762L97.7461 6.34608V26.6538L100.353 29.1922L102.959 26.6538V19.0384H118.599V26.6538L121.205 29.1922L123.812 26.6538V6.34608L121.205 3.80762H100.353ZM118.599 13.9615H102.959V8.88454H118.599V13.9615Z" fill="black"/>
<path d="M152.484 3.80762H131.632L129.025 6.34608V26.6538L131.632 29.1922L134.239 26.6538V19.0384H149.878V26.6538L152.484 29.1922L155.091 26.6538V6.34608L152.484 3.80762ZM149.878 13.9615H134.239V8.88454H149.878V13.9615Z" fill="black"/>
<path d="M95.3999 2.53846H94.8786V1.52308H93.8359V1.01538H94.8786V0H95.3999V1.01538H96.4425V1.52308H95.3999V2.53846Z" fill="black"/>
<path d="M95.3999 33.0004H94.8786V31.985H93.8359V31.4773H94.8786V30.4619H95.3999V31.4773H96.4425V31.985H95.3999V33.0004Z" fill="black"/>
<path d="M126.679 2.53846H126.158V1.52308H125.115V1.01538H126.158V0H126.679V1.01538H127.722V1.52308H126.679V2.53846Z" fill="black"/>
<path d="M157.957 2.53846H157.436V1.52308H156.394V1.01538H157.436V0H157.957V1.01538H159V1.52308H157.957V2.53846Z" fill="black"/>
<path d="M126.679 33.0004H126.158V31.985H125.115V31.4773H126.158V30.4619H126.679V31.4773H127.722V31.985H126.679V33.0004Z" fill="black"/>
<path d="M157.957 33.0004H157.436V31.985H156.394V31.4773H157.436V30.4619H157.957V31.4773H159V31.985H157.957V33.0004Z" fill="black"/>
</g>
<defs>
<clipPath id="clip0_456_7311">
<rect width="159" height="33" fill="white"/>
</clipPath>
</defs>
</svg>
